<svg width="263" height="148" viewBox="0 0 263 148" fill="none" xmlns="http://www.w3.org/2000/svg">
<path d="M135.504 132.231C136.602 131.613 137.715 130.983 138.614 130.074C139.513 129.165 140.184 127.924 140.159 126.62C137.723 127.395 135.605 129.243 134.428 131.621C134.719 128.555 134.488 125.441 133.746 122.472C132.762 123.74 132.259 125.38 132.22 127.008C132.182 128.637 132.59 130.252 133.266 131.71C131.898 129.979 130.247 128.496 128.406 127.344C129.437 130.277 131.245 132.549 133.89 133.969L134.424 134.021C136.754 134.303 138.754 133.417 140.227 132.543C140.848 132.174 141.633 131.584 141.55 131.354C139.515 131.425 137.485 131.72 135.504 132.231Z" fill="#E0E0E0"/>
<path d="M263 114.73H0V114.688H263V114.73Z" fill="#E0E0E0"/>
<path d="M229.205 124.987H248.747V125.135H229.205V124.987Z" fill="#EBEBEB"/>
<path d="M173.596 126.589H178.725V126.736H173.596V126.589Z" fill="#EBEBEB"/>
<path d="M14.2539 120.501H39.7383V120.648H14.2539V120.501Z" fill="#EBEBEB"/>
<path d="M44.9902 120.501H48.7269V120.648H44.9902V120.501Z" fill="#EBEBEB"/>
<path d="M60.8711 122.991H116.141V123.139H60.8711V122.991Z" fill="#EBEBEB"/>
<path d="M235.423 16.2687C233.474 14.7966 230.63 14.6301 228.523 15.8641C225.725 10.2126 217.929 7.7183 212.369 10.696C210.919 4.60596 204.917 -0.0751762 198.655 0.00019455C192.394 0.0755672 186.506 4.89938 185.203 11.0228C184.995 11.9959 184.858 13.062 184.162 13.7726C183.031 14.9274 181.143 14.54 179.531 14.4141C174.46 14.0191 169.357 17.578 167.979 22.4727L237.812 22.2185C238.424 19.8546 237.371 17.7407 235.423 16.2687Z" fill="#F5F5F5"/>
<path d="M63.6446 46.8486C62.64 46.0897 61.1742 46.0038 60.0875 46.6401C58.6452 43.7265 54.6262 42.4406 51.7599 43.9757C51.0122 40.836 47.918 38.4227 44.6901 38.4617C41.4618 38.5006 38.4265 40.9875 37.7546 44.1444C37.648 44.6457 37.5771 45.1954 37.2184 45.5617C36.6353 46.1573 35.6618 45.9575 34.8307 45.8926C32.2165 45.6886 29.5862 47.5235 28.875 50.0469L64.8765 49.9158C65.1918 48.6972 64.6493 47.6073 63.6446 46.8486Z" fill="#F5F5F5"/>
<path d="M193.074 115.135L218.091 78.7714L220.285 76.8794L221.794 76.7199L250.354 115.135H193.074Z" fill="#EBEBEB"/>
<path d="M221.797 76.7199L230.723 115.135H250.357L221.797 76.7199Z" fill="#E6E6E6"/>
<path d="M225.502 99.709H217.93L219.085 97.8901H224.159L225.502 99.709Z" fill="#E6E6E6"/>
<path d="M218.178 109.037H200.656L203.478 104.598H218.406L218.178 109.037Z" fill="#F0F0F0"/>
<path d="M240.917 103.133L231.331 103.303L230.105 100.499H238.986L240.917 103.133Z" fill="#F0F0F0"/>
<path d="M238.007 99.4995L232.499 99.584L231.273 96.7801L236.076 96.8649L238.007 99.4995Z" fill="#E0E0E0"/>
<path d="M210.04 98.1424L204.771 98.1816L206.676 95.3679L210.815 95.4482L210.04 98.1424Z" fill="#E6E6E6"/>
<path d="M227.525 85.2344H219.688L220.61 83.9681H226.495L227.525 85.2344Z" fill="#E0E0E0"/>
<path d="M224.725 102.729H210.105L211.338 100.636H225.14L224.725 102.729Z" fill="#F0F0F0"/>
<path d="M235.51 95.6099L230.104 95.6797L229.402 93.5869H234.007L235.51 95.6099Z" fill="#E0E0E0"/>
<path d="M217.159 94.7207H207.174L209.444 91.4083H218.406L217.159 94.7207Z" fill="#F0F0F0"/>
<mask id="mask0_1770_3626" style="mask-type:luminance" maskUnits="userSpaceOnUse" x="222" y="103" width="4" height="1">
<path d="M222.074 103.253H225.324V103.975H222.074V103.253Z" fill="white"/>
</mask>
<g mask="url(#mask0_1770_3626)">
<g opacity="0.100006">
<path d="M225.325 103.975H222.074L222.321 103.253L225.14 103.302L225.325 103.975Z" fill="white"/>
</g>
</g>
<path d="M216.918 90.1309H213.668L213.915 89.4095L216.733 89.4583L216.918 90.1309Z" fill="#F0F0F0"/>
<path d="M213.348 111.434H210.098L210.345 110.712L213.163 110.761L213.348 111.434Z" fill="#E6E6E6"/>
<path d="M8.60156 115.135L39.436 70.3153L42.1404 67.9834L43.9996 67.7867L79.2013 115.135H8.60156Z" fill="#EBEBEB"/>
<path d="M44 67.7867L55.0015 115.135H79.2013L44 67.7867Z" fill="#E6E6E6"/>
<path d="M48.5697 96.1211H39.2363L40.6611 93.8789H46.9138L48.5697 96.1211Z" fill="#E6E6E6"/>
<path d="M39.5415 107.619H17.9453L21.4232 102.147H39.8234L39.5415 107.619Z" fill="#F0F0F0"/>
<path d="M67.5679 100.342L55.7525 100.551L54.2422 97.095H65.1886L67.5679 100.342Z" fill="#F0F0F0"/>
<path d="M63.9805 95.8643L57.192 95.9688L55.6816 92.5126L61.6012 92.6171L63.9805 95.8643Z" fill="#E0E0E0"/>
<path d="M29.5128 94.1918L23.0195 94.2402L25.3676 90.7721L30.4691 90.871L29.5128 94.1918Z" fill="#E6E6E6"/>
<path d="M51.0629 78.2812H41.4023L42.5392 76.7208H49.7927L51.0629 78.2812Z" fill="#E0E0E0"/>
<path d="M47.6092 99.8438H29.5898L31.1096 97.2642H48.1205L47.6092 99.8438Z" fill="#F0F0F0"/>
<path d="M60.9067 91.0684L54.244 91.1543L53.3789 88.5748H59.0537L60.9067 91.0684Z" fill="#E0E0E0"/>
<path d="M38.2871 89.9746H25.9805L28.7788 85.8929H39.8241L38.2871 89.9746Z" fill="#F0F0F0"/>
<mask id="mask1_1770_3626" style="mask-type:luminance" maskUnits="userSpaceOnUse" x="44" y="100" width="5" height="2">
<path d="M44.3438 100.492H48.3498V101.381H44.3438V100.492Z" fill="white"/>
</mask>
<g mask="url(#mask1_1770_3626)">
<g opacity="0.100006">
<path d="M48.3498 101.381H44.3438L44.6478 100.492L48.1222 100.552L48.3498 101.381Z" fill="white"/>
</g>
</g>
<path d="M37.9884 84.3164H33.9824L34.2864 83.4271L37.7609 83.4874L37.9884 84.3164Z" fill="#F0F0F0"/>
<path d="M33.588 110.572H29.582L29.8861 109.683L33.3605 109.744L33.588 110.572Z" fill="#E6E6E6"/>
<path d="M91.7988 115.135L148.279 33.0384L153.232 28.7671L156.638 28.4067L221.117 115.135H91.7988Z" fill="#EBEBEB"/>
<path d="M156.637 28.4067L176.788 115.135H221.116L156.637 28.4067Z" fill="#E6E6E6"/>
<path d="M165.006 80.3066H147.91L150.52 76.2008H161.973L165.006 80.3066Z" fill="#E6E6E6"/>
<path d="M148.47 101.365H108.912L115.282 91.3425H148.986L148.47 101.365Z" fill="#F0F0F0"/>
<path d="M199.807 88.0398L178.164 88.4219L175.398 82.0934H195.449L199.807 88.0398Z" fill="#F0F0F0"/>
<path d="M193.236 79.8343L180.801 80.0254L178.035 73.6969L188.878 73.888L193.236 79.8343Z" fill="#E0E0E0"/>
<path d="M130.101 76.7726L118.207 76.8613L122.508 70.5108L131.852 70.692L130.101 76.7726Z" fill="#E6E6E6"/>
<path d="M169.574 47.627H151.879L153.961 44.7687H167.247L169.574 47.627Z" fill="#E0E0E0"/>
<path d="M163.248 87.127H130.242L133.026 82.4037H164.185L163.248 87.127Z" fill="#F0F0F0"/>
<path d="M187.605 71.0539L175.401 71.2109L173.816 66.4877H184.211L187.605 71.0539Z" fill="#E0E0E0"/>
<path d="M146.172 69.0469H123.629L128.755 61.5707H148.987L146.172 69.0469Z" fill="#F0F0F0"/>
<mask id="mask2_1770_3626" style="mask-type:luminance" maskUnits="userSpaceOnUse" x="157" y="88" width="8" height="2">
<path d="M157.264 88.3106H164.602V89.9395H157.264V88.3106Z" fill="white"/>
</mask>
<g mask="url(#mask2_1770_3626)">
<g opacity="0.100006">
<path d="M164.602 89.9395H157.264L157.821 88.3106L164.185 88.4214L164.602 89.9395Z" fill="white"/>
</g>
</g>
<path d="M145.627 58.6855H138.289L138.846 57.0567L145.21 57.1675L145.627 58.6855Z" fill="#F0F0F0"/>
<path d="M137.565 106.779H130.227L130.784 105.15L137.148 105.261L137.565 106.779Z" fill="#E6E6E6"/>
<path d="M243.331 84.0932C243.33 84.0914 243.329 84.0897 243.328 84.0883C243.327 84.0893 243.325 84.0904 243.324 84.0914C243.325 84.0893 243.326 84.0872 243.327 84.0851C243.327 84.0848 243.327 84.0848 243.328 84.0848C243.328 84.0837 243.329 84.0823 243.33 84.0812C243.333 84.0819 243.336 84.0823 243.339 84.083C243.335 84.0837 243.331 84.084 243.328 84.0848C243.329 84.0876 243.33 84.0904 243.331 84.0932ZM254.054 85.2812C250.819 81.6718 245.853 80.4771 243.831 83.181C244.677 80.7642 241.953 77.9368 238.29 77.1375C238.556 77.5596 238.816 77.9663 239.07 78.3575C239.435 78.3305 239.801 78.3733 240.15 78.4841C239.863 78.5405 239.582 78.6204 239.308 78.7228C240.014 79.7987 240.674 80.7501 241.292 81.587H241.292L241.44 81.7861C239.148 80.4476 235.377 80.7389 232.207 83.0993C234.419 83.8011 236.591 84.1293 238.614 84.2299C238.58 84.2404 238.557 84.2478 238.557 84.2478L239.318 84.2565C239.611 84.2635 239.902 84.2677 240.188 84.2663L240.227 84.2667C239.28 84.5647 238.334 85.059 237.491 85.7131C237.572 86.3056 237.778 86.8739 238.095 87.3801C237.49 87.2833 237.048 86.7771 236.77 86.3365C235.597 87.4607 234.737 88.9149 234.521 90.5562C236.396 90.653 238.082 89.9322 239.477 88.8977C234.975 96.6544 234.411 107.545 234.427 112.748V112.911C234.433 113.949 234.461 114.746 234.484 115.227L237.928 115.242C237.927 115.23 237.931 115.171 237.93 115.158C237.889 114.657 237.832 113.854 237.783 112.819C237.785 112.819 237.788 112.819 237.79 112.819C237.781 112.646 237.774 112.465 237.766 112.282C237.764 112.282 237.762 112.282 237.76 112.282C237.732 111.597 237.709 110.829 237.696 109.992C237.698 109.992 237.701 109.992 237.703 109.992C237.703 109.815 237.701 109.636 237.696 109.455C237.694 109.455 237.692 109.455 237.69 109.455C237.684 108.727 237.686 107.954 237.7 107.144C237.702 107.144 237.704 107.144 237.706 107.144C237.706 106.966 237.714 106.785 237.718 106.607C237.716 106.607 237.713 106.607 237.711 106.606C237.729 105.857 237.757 105.079 237.799 104.281C237.801 104.282 237.804 104.282 237.806 104.282C237.815 104.103 237.825 103.922 237.836 103.745C237.834 103.745 237.831 103.744 237.829 103.744C237.874 102.979 237.932 102.198 238.004 101.406C238.006 101.407 238.008 101.407 238.01 101.407L238.062 100.87C238.06 100.869 238.058 100.869 238.056 100.869C238.132 100.1 238.223 99.3222 238.33 98.5415C238.332 98.5422 238.334 98.5425 238.336 98.5429C238.359 98.3655 238.385 98.1871 238.411 98.0055C238.409 98.0051 238.408 98.0048 238.406 98.0044C238.518 97.2384 238.646 96.471 238.792 95.7071C238.794 95.7078 238.796 95.7082 238.798 95.7085C238.831 95.5326 238.866 95.3552 238.906 95.1788C238.903 95.1781 238.9 95.1774 238.896 95.1764C239.05 94.4202 239.221 93.6689 239.413 92.9275C239.415 92.9282 239.417 92.9285 239.418 92.9292C239.464 92.7543 239.51 92.5804 239.557 92.4069C239.556 92.4065 239.553 92.4058 239.552 92.4051C239.752 91.6707 239.974 90.9482 240.217 90.2411C240.219 90.2418 240.221 90.2425 240.223 90.2435C240.281 90.0721 240.341 89.9024 240.402 89.7338C240.401 89.7331 240.399 89.7328 240.397 89.7321C240.539 89.3419 240.687 88.9573 240.844 88.579C240.34 90.3238 240.256 92.2814 241.155 94.0472C241.748 93.6819 242.273 93.2167 242.706 92.6723C242.501 92.632 242.301 92.572 242.107 92.4928C242.418 92.4483 242.723 92.3694 243.017 92.2586C243.38 91.7247 243.675 91.1469 243.893 90.5391C243.73 90.4756 243.571 90.3992 243.42 90.3101C243.609 90.3154 243.798 90.3038 243.985 90.2758C244.455 88.8321 244.522 87.2777 244.201 85.9655C244.209 85.9806 244.216 85.9957 244.224 86.0108C244.224 86.0122 244.225 86.0139 244.225 86.0153C244.217 86.0248 244.578 86.7024 244.881 87.2532C244.895 87.2774 244.907 87.3016 244.921 87.3258C245.067 87.5897 245.194 87.8151 245.253 87.9066C245.256 87.9119 245.26 87.9172 245.263 87.9221C246.582 90.1724 248.302 92.4882 250.547 94.578C251.113 90.1142 249.294 86.2124 246.687 84.6804C246.687 84.6804 246.688 84.6804 246.688 84.6804L246.69 84.6814C246.69 84.6814 246.689 84.6807 246.689 84.6804C248.146 84.8756 249.805 85.033 251.688 85.1554C251.629 84.7929 251.542 84.4357 251.427 84.0872C251.764 84.3982 252.038 84.7705 252.235 85.1845C252.82 85.2209 253.426 85.2521 254.054 85.2812Z" fill="#E0E0E0"/>
<path d="M162.743 76.53C162.742 76.5279 162.74 76.5258 162.738 76.5237C162.737 76.5251 162.736 76.5268 162.735 76.5282C162.736 76.5254 162.737 76.5226 162.738 76.5198C162.739 76.5184 162.741 76.5166 162.742 76.5152C162.745 76.5159 162.749 76.5166 162.752 76.5173C162.748 76.5184 162.743 76.5187 162.738 76.5198C162.739 76.5229 162.742 76.5265 162.743 76.53ZM176.016 78.0006C172.011 73.5326 165.864 72.0539 163.362 75.4008C164.409 72.409 161.037 68.9093 156.503 67.92C156.832 68.4424 157.154 68.9458 157.469 69.4299C157.92 69.3966 158.373 69.4499 158.805 69.587C158.45 69.6567 158.101 69.7556 157.762 69.8825C158.637 71.2143 159.453 72.3915 160.22 73.4278C160.219 73.4278 160.219 73.4278 160.219 73.4278L160.402 73.6742C157.564 72.0175 152.896 72.3778 148.973 75.2998C151.711 76.1685 154.399 76.5748 156.903 76.6993C156.862 76.7123 156.833 76.7214 156.833 76.7214L157.775 76.7319C158.138 76.741 158.498 76.7463 158.852 76.7442L158.9 76.7449C157.728 77.1137 156.557 77.7254 155.514 78.5352C155.613 79.2686 155.869 79.9718 156.262 80.599C155.512 80.4791 154.965 79.8523 154.62 79.3068C153.169 80.6986 152.104 82.4987 151.838 84.5303C154.159 84.6502 156.246 83.7576 157.973 82.4773C152.399 92.0791 151.701 105.56 151.721 112V112.202C151.721 112.202 151.721 112.202 151.722 112.202C151.729 113.487 151.764 114.474 151.791 115.069L156.054 115.088C156.054 115.072 156.058 114.999 156.056 114.983C156.007 114.364 155.936 113.369 155.876 112.088C155.878 112.088 155.881 112.088 155.884 112.088C155.873 111.874 155.864 111.65 155.854 111.423C155.852 111.423 155.849 111.423 155.846 111.423C155.812 110.575 155.783 109.624 155.768 108.589C155.77 108.589 155.773 108.589 155.776 108.589C155.776 108.37 155.773 108.148 155.768 107.924C155.765 107.924 155.763 107.924 155.76 107.924C155.752 107.022 155.755 106.065 155.772 105.063C155.775 105.063 155.777 105.064 155.78 105.064C155.78 104.843 155.789 104.62 155.795 104.399C155.792 104.398 155.789 104.398 155.786 104.398C155.808 103.47 155.843 102.508 155.895 101.52C155.898 101.521 155.901 101.521 155.904 101.521C155.914 101.299 155.927 101.075 155.941 100.856C155.938 100.856 155.935 100.855 155.932 100.855C155.988 99.9083 156.06 98.9414 156.149 97.9609C156.152 97.9612 156.154 97.9616 156.156 97.9619L156.22 97.2969C156.218 97.2966 156.215 97.2962 156.213 97.2959C156.307 96.3437 156.419 95.3814 156.552 94.4149C156.554 94.4156 156.557 94.4159 156.56 94.4166C156.589 94.1972 156.621 93.9763 156.653 93.7513C156.651 93.7509 156.648 93.7506 156.646 93.7499C156.785 92.8019 156.943 91.8519 157.124 90.9064C157.127 90.9071 157.129 90.9075 157.132 90.9082C157.173 90.6901 157.216 90.4707 157.265 90.2522C157.261 90.2512 157.257 90.2505 157.253 90.2494C157.443 89.3134 157.655 88.3834 157.892 87.4656C157.895 87.4663 157.897 87.467 157.9 87.4677C157.956 87.2514 158.013 87.0358 158.071 86.8212C158.069 86.8205 158.067 86.8198 158.064 86.8191C158.313 85.9101 158.587 85.0155 158.888 84.1401C158.89 84.1411 158.893 84.1422 158.895 84.1429C158.967 83.9312 159.041 83.7208 159.117 83.5126C159.115 83.5115 159.113 83.5108 159.111 83.5098C159.286 83.027 159.47 82.551 159.663 82.083C159.04 84.2428 158.936 86.6659 160.049 88.8514C160.783 88.3995 161.433 87.8239 161.969 87.1497C161.716 87.0999 161.467 87.0256 161.228 86.9278C161.613 86.8721 161.99 86.775 162.354 86.6375C162.804 85.9767 163.168 85.2616 163.438 84.5089C163.236 84.4304 163.04 84.3357 162.853 84.2256C163.087 84.2323 163.321 84.2179 163.552 84.1829C164.134 82.3964 164.217 80.4717 163.82 78.8479C163.829 78.8665 163.838 78.8851 163.848 78.9037C163.848 78.9054 163.849 78.9079 163.849 78.9096C163.84 78.9212 164.286 79.7597 164.661 80.4416C164.678 80.4714 164.694 80.5012 164.711 80.5313C164.891 80.8584 165.049 81.1375 165.122 81.2507C165.126 81.257 165.13 81.2633 165.134 81.2696C166.767 84.0549 168.895 86.9219 171.675 89.5087C172.376 83.983 170.125 79.1529 166.897 77.2567C166.897 77.2567 166.898 77.2567 166.898 77.257L166.9 77.2581C166.9 77.2581 166.899 77.257 166.899 77.257C168.703 77.4986 170.756 77.6935 173.087 77.8449C173.015 77.3962 172.907 76.9538 172.765 76.5226C173.181 76.9075 173.52 77.3685 173.764 77.8807C174.488 77.9259 175.239 77.9645 176.016 78.0006Z" fill="#E0E0E0"/>
<path d="M141.198 90.6957C141.195 90.695 141.192 90.695 141.189 90.6943C141.192 90.694 141.194 90.6933 141.196 90.6929C141.196 90.694 141.197 90.6947 141.198 90.6957C141.199 90.6975 141.2 90.6992 141.2 90.701C141.2 90.6999 141.199 90.6992 141.198 90.6982C141.197 90.6996 141.196 90.701 141.195 90.702C141.196 90.6999 141.197 90.6978 141.198 90.6957ZM134.225 91.5564C134.379 91.2324 134.593 90.9408 134.857 90.6975C134.767 90.9702 134.699 91.25 134.653 91.5339C136.127 91.4379 137.426 91.3148 138.566 91.162L138.566 91.1627C138.566 91.1627 138.567 91.162 138.567 91.162C138.567 91.162 138.568 91.162 138.568 91.1616C136.527 92.3613 135.103 95.4158 135.546 98.9106C137.304 97.2745 138.65 95.4613 139.683 93.6997C139.685 93.6959 139.688 93.6917 139.691 93.6878C139.737 93.6159 139.837 93.4396 139.951 93.2328C139.961 93.2138 139.971 93.1949 139.982 93.176C140.219 92.7448 140.501 92.2144 140.495 92.207C140.495 92.206 140.496 92.2046 140.496 92.2035C140.502 92.1916 140.508 92.18 140.514 92.1681C140.263 93.1953 140.315 94.4121 140.684 95.5423C140.83 95.5644 140.978 95.5735 141.126 95.5693C141.007 95.6387 140.883 95.6987 140.755 95.7485C140.926 96.2245 141.156 96.6768 141.441 97.0946C141.671 97.1816 141.91 97.2429 142.153 97.278C142.002 97.34 141.845 97.387 141.684 97.4186C142.024 97.8449 142.435 98.2091 142.899 98.4948C143.603 97.1125 143.537 95.5802 143.143 94.214C143.265 94.5102 143.381 94.8114 143.492 95.1167C143.491 95.1171 143.489 95.1178 143.488 95.1181C143.536 95.2499 143.583 95.3828 143.629 95.5171C143.63 95.5164 143.632 95.5157 143.633 95.5153C143.824 96.0689 143.997 96.6347 144.154 97.2096C144.153 97.21 144.151 97.2103 144.149 97.2107C144.187 97.3467 144.223 97.4831 144.258 97.6198C144.26 97.6191 144.261 97.6187 144.263 97.6184C144.413 98.1986 144.547 98.7868 144.667 99.3789C144.665 99.3796 144.662 99.3803 144.66 99.3807C144.691 99.5188 144.718 99.6576 144.744 99.7958C144.746 99.7951 144.747 99.7951 144.749 99.7944C144.863 100.392 144.963 100.993 145.051 101.593C145.05 101.593 145.048 101.593 145.047 101.594C145.067 101.736 145.087 101.876 145.106 102.015C145.107 102.014 145.109 102.014 145.111 102.013C145.194 102.624 145.265 103.233 145.325 103.835C145.323 103.836 145.322 103.836 145.32 103.836L145.361 104.257C145.362 104.257 145.364 104.256 145.365 104.256C145.422 104.876 145.467 105.488 145.503 106.086C145.501 106.086 145.499 106.087 145.497 106.087C145.505 106.226 145.514 106.367 145.521 106.508C145.522 106.507 145.524 106.507 145.526 106.507C145.559 107.132 145.581 107.74 145.595 108.327C145.593 108.328 145.591 108.328 145.59 108.328C145.593 108.467 145.599 108.609 145.599 108.748C145.6 108.748 145.602 108.748 145.604 108.748C145.615 109.382 145.616 109.987 145.611 110.557C145.61 110.557 145.608 110.557 145.606 110.557C145.603 110.699 145.602 110.839 145.602 110.978C145.603 110.978 145.605 110.978 145.606 110.978C145.597 111.633 145.579 112.234 145.557 112.77C145.555 112.77 145.553 112.77 145.552 112.77C145.546 112.913 145.54 113.056 145.533 113.191C145.535 113.191 145.537 113.191 145.538 113.191C145.5 114.001 145.455 114.63 145.424 115.022C145.423 115.032 145.425 115.078 145.425 115.088L148.121 115.076C148.139 114.7 148.161 114.075 148.166 113.262L148.166 113.135C148.179 109.062 147.737 100.536 144.212 94.4636C145.304 95.2734 146.624 95.8375 148.092 95.7618C147.924 94.4769 147.25 93.3386 146.332 92.4584C146.114 92.8033 145.768 93.1998 145.294 93.2755C145.543 92.8791 145.704 92.4342 145.767 91.9704C145.107 91.4582 144.367 91.0712 143.625 90.838L143.656 90.8377C143.88 90.8391 144.107 90.8356 144.337 90.83L144.933 90.8233C144.933 90.8233 144.915 90.8174 144.888 90.8093C146.472 90.7304 148.172 90.4738 149.904 89.9241C147.423 88.0763 144.47 87.8484 142.676 88.8962L142.792 88.7402C142.791 88.7402 142.791 88.7402 142.791 88.7402C143.276 88.085 143.792 87.3401 144.345 86.498C144.13 86.4177 143.91 86.3553 143.686 86.3112C143.959 86.2242 144.245 86.1906 144.531 86.2119C144.729 85.9056 144.933 85.5872 145.142 85.2567C142.274 85.8824 140.141 88.0959 140.804 89.9879C139.221 87.8712 135.333 88.8065 132.801 91.6321C133.292 91.6096 133.767 91.5851 134.225 91.5564Z" fill="#E0E0E0"/>
<path d="M14.9509 93.6713C14.9484 93.671 14.946 93.6706 14.9435 93.6703C14.9453 93.6696 14.947 93.6692 14.9491 93.6689C14.9498 93.6696 14.9502 93.6706 14.9509 93.6713C14.9516 93.6727 14.9526 93.6745 14.953 93.6759C14.9523 93.6752 14.9516 93.6741 14.9509 93.6734C14.9498 93.6748 14.9491 93.6759 14.9484 93.6769C14.9491 93.6752 14.9502 93.6731 14.9509 93.6713ZM8.8286 94.4272C8.96396 94.1429 9.15227 93.8866 9.38336 93.6727C9.30446 93.9125 9.24449 94.1579 9.20452 94.4072C10.4988 94.323 11.6388 94.2151 12.6403 94.0808L12.64 94.0812L12.6411 94.0808C12.6414 94.0808 12.6418 94.0805 12.6421 94.0805C10.8495 95.1336 9.59937 97.8158 9.98861 100.884C11.5319 99.4476 12.714 97.8557 13.6208 96.3087C13.6229 96.3055 13.6254 96.3016 13.6275 96.2985C13.6678 96.2354 13.7555 96.0804 13.8558 95.8988C13.8652 95.8824 13.874 95.8659 13.8831 95.8491C14.0914 95.4705 14.3393 95.0049 14.3341 94.9982C14.3344 94.9975 14.3348 94.9961 14.3348 94.9951C14.34 94.9849 14.3453 94.9744 14.3502 94.9642C14.1296 95.8659 14.1759 96.9344 14.4992 97.9265C14.6276 97.9462 14.7577 97.9542 14.8874 97.9504C14.7833 98.0114 14.6746 98.064 14.5624 98.1078C14.7121 98.5257 14.9144 98.9228 15.1644 99.2895C15.3664 99.366 15.5761 99.42 15.7897 99.4508C15.6568 99.5051 15.519 99.5465 15.378 99.5742C15.6761 99.9483 16.0369 100.268 16.4444 100.519C17.0626 99.3053 17.0047 97.9598 16.6583 96.7605C16.7659 97.0203 16.868 97.285 16.9655 97.5528C16.9641 97.5535 16.963 97.5539 16.9616 97.5542C17.004 97.6699 17.0451 97.7867 17.085 97.9044C17.0865 97.9041 17.0879 97.9034 17.0893 97.903C17.2562 98.3889 17.4084 98.8857 17.5465 99.3905C17.5451 99.3909 17.5437 99.3912 17.5423 99.3916C17.5749 99.5107 17.6068 99.6306 17.6377 99.7505C17.6391 99.7502 17.6405 99.7498 17.6419 99.7495C17.7738 100.259 17.8916 100.776 17.9968 101.295C17.9947 101.296 17.9926 101.296 17.9905 101.297C18.0175 101.418 18.0413 101.54 18.0641 101.661C18.0655 101.661 18.0673 101.66 18.0687 101.66C18.169 102.185 18.257 102.712 18.3341 103.239C18.3327 103.239 18.3317 103.24 18.3303 103.24C18.3482 103.365 18.3657 103.487 18.3818 103.609C18.3836 103.609 18.385 103.609 18.3864 103.609C18.4597 104.145 18.5221 104.68 18.5747 105.208C18.5733 105.208 18.5719 105.209 18.5705 105.209L18.6059 105.578C18.6073 105.578 18.6087 105.578 18.6101 105.577C18.6595 106.122 18.6995 106.659 18.7304 107.184C18.729 107.185 18.7272 107.185 18.7255 107.185C18.7328 107.307 18.7402 107.431 18.7462 107.554C18.7479 107.554 18.7493 107.554 18.7511 107.554C18.7798 108.102 18.7995 108.637 18.8117 109.152C18.81 109.152 18.8086 109.152 18.8068 109.152C18.81 109.275 18.8149 109.399 18.8149 109.522C18.8163 109.522 18.8177 109.522 18.8191 109.521C18.8289 110.078 18.8303 110.609 18.8258 111.11C18.8244 111.11 18.823 111.11 18.8216 111.11C18.8187 111.234 18.8173 111.357 18.8173 111.479C18.8187 111.479 18.8201 111.479 18.8216 111.479C18.8131 112.054 18.7974 112.582 18.7781 113.053C18.7767 113.053 18.7749 113.053 18.7735 113.053C18.7682 113.178 18.7633 113.303 18.7574 113.422C18.7588 113.422 18.7602 113.422 18.7619 113.422C18.7283 114.134 18.689 114.686 18.6613 115.03C18.6606 115.038 18.6627 115.079 18.6627 115.088L21.0297 115.077C21.0451 114.747 21.0648 114.199 21.0686 113.485L21.069 113.373C21.0798 109.797 20.6924 102.311 17.5974 96.9796C18.5561 97.6906 19.715 98.186 21.0037 98.1193C20.8561 96.9912 20.2649 95.9917 19.4587 95.2191C19.2672 95.522 18.9636 95.8697 18.5477 95.9364C18.7658 95.5882 18.9075 95.1977 18.9629 94.7907C18.3832 94.3409 17.7331 94.0012 17.0822 93.7965L17.1089 93.7961C17.3056 93.7972 17.5055 93.794 17.7071 93.7891L18.2303 93.7832C18.2303 93.7832 18.2142 93.7783 18.1911 93.7712C19.5814 93.7018 21.0739 93.4764 22.5947 92.994C20.416 91.3713 17.8239 91.1711 16.2487 92.0913L16.3501 91.9543C16.3501 91.9543 16.3497 91.9543 16.3497 91.9546C16.7754 91.379 17.2285 90.7252 17.7138 89.9858C17.5258 89.9154 17.3323 89.8603 17.1352 89.8218C17.3747 89.7453 17.6265 89.7159 17.8772 89.7345C18.0515 89.4656 18.2303 89.1862 18.4137 88.8959C15.8959 89.4452 14.0234 91.3888 14.6048 93.0498C13.2151 91.1914 9.8017 92.0128 7.57812 94.4938C8.0098 94.4738 8.42639 94.4524 8.8286 94.4272Z" fill="#E0E0E0"/>
<path d="M76.9785 79.6686C76.9743 79.6679 76.9705 79.6675 76.9663 79.6665C76.9691 79.6658 76.9726 79.6651 76.9754 79.6644C76.9764 79.6658 76.9775 79.6672 76.9785 79.6686C76.9789 79.6686 76.9789 79.6686 76.9792 79.6686C76.9799 79.6711 76.9813 79.6739 76.9824 79.6763C76.981 79.6749 76.9796 79.6735 76.9785 79.6725C76.9771 79.6742 76.9757 79.676 76.9743 79.6781C76.9757 79.6749 76.9771 79.6718 76.9785 79.6686ZM66.853 80.9184C67.0768 80.4483 67.3885 80.0248 67.7711 79.6711C67.6403 80.0672 67.5414 80.4735 67.4751 80.8854C69.6152 80.7466 71.5011 80.5675 73.1577 80.3455C73.1573 80.3459 73.1566 80.3466 73.1566 80.3466L73.1584 80.3455C73.1587 80.3455 73.1594 80.3455 73.1601 80.3455C70.1956 82.0868 68.1277 86.5226 68.7719 91.597C71.3244 89.2216 73.2794 86.5888 74.7788 84.0307C74.7827 84.0248 74.7862 84.0188 74.79 84.0132C74.8567 83.9091 75.0015 83.6532 75.1673 83.3527C75.1828 83.325 75.1975 83.2977 75.2129 83.2703C75.5573 82.6439 75.9669 81.874 75.9584 81.8632C75.9588 81.8618 75.9595 81.8593 75.9595 81.8579C75.9683 81.8407 75.9767 81.8239 75.9851 81.8067C75.6204 83.298 75.6972 85.0652 76.232 86.7063C76.4441 86.7385 76.6587 86.7515 76.8733 86.7452C76.7015 86.8465 76.5216 86.9334 76.3358 87.0056C76.5837 87.6966 76.9186 88.3536 77.3317 88.9604C77.6658 89.0866 78.0123 89.1757 78.3658 89.2268C78.1459 89.3166 77.918 89.3849 77.6848 89.4309C78.1782 90.0496 78.7747 90.5783 79.4486 90.9933C80.4708 88.9863 80.3754 86.7609 79.8025 84.7774C79.9799 85.2076 80.1489 85.6447 80.3102 86.0882C80.3081 86.0889 80.306 86.0896 80.3039 86.0903C80.374 86.2817 80.4421 86.4749 80.508 86.6694C80.5105 86.6687 80.5129 86.6677 80.515 86.667C80.7913 87.4705 81.0431 88.2922 81.271 89.1269C81.2689 89.1276 81.2668 89.1283 81.2647 89.129C81.3184 89.326 81.371 89.5241 81.4222 89.7229C81.4246 89.7222 81.4267 89.7215 81.4292 89.7208C81.647 90.5636 81.8416 91.4175 82.0159 92.2775C82.0124 92.2782 82.0089 92.2792 82.0053 92.2799C82.0506 92.4805 82.0895 92.682 82.1274 92.8822C82.1298 92.8819 82.1323 92.8812 82.1347 92.8805C82.3006 93.7488 82.4461 94.6214 82.5738 95.4922C82.5717 95.4925 82.5696 95.4929 82.5675 95.4932C82.5966 95.6997 82.626 95.9027 82.653 96.1043C82.6555 96.1036 82.6576 96.1032 82.66 96.1029C82.7817 96.9902 82.8848 97.8739 82.9718 98.7483C82.9693 98.7486 82.9669 98.749 82.9644 98.7493L83.0233 99.3604C83.0254 99.36 83.0279 99.3597 83.03 99.3593C83.1124 100.26 83.178 101.148 83.2292 102.017C83.2267 102.017 83.2239 102.017 83.2211 102.018C83.2334 102.219 83.2457 102.425 83.2555 102.629C83.2583 102.628 83.2607 102.628 83.2635 102.628C83.3109 103.535 83.3431 104.419 83.3635 105.271C83.361 105.271 83.3582 105.271 83.3558 105.271C83.3607 105.474 83.3691 105.679 83.3691 105.882C83.3715 105.882 83.3736 105.882 83.3761 105.882C83.3922 106.802 83.3943 107.681 83.3873 108.509C83.3849 108.509 83.3824 108.509 83.38 108.509C83.3754 108.715 83.3726 108.918 83.3726 109.12C83.375 109.12 83.3775 109.12 83.38 109.119C83.3659 110.071 83.3396 110.944 83.3081 111.722C83.3056 111.722 83.3032 111.722 83.3007 111.722C83.2923 111.93 83.2835 112.137 83.2737 112.333C83.2762 112.333 83.2786 112.333 83.2811 112.333C83.2257 113.51 83.1608 114.423 83.1149 114.992C83.1138 115.007 83.1173 115.074 83.117 115.088L87.0318 115.07C87.0574 114.524 87.0897 113.618 87.096 112.437C87.0963 112.437 87.0963 112.437 87.0967 112.437V112.252C87.1149 106.338 86.4739 93.9574 81.3556 85.1396C82.9409 86.3157 84.8577 87.135 86.989 87.0249C86.7446 85.1595 85.7669 83.5063 84.4337 82.2281C84.1171 82.7291 83.6149 83.3047 82.9265 83.4148C83.2877 82.8388 83.522 82.193 83.6135 81.5196C82.6551 80.7757 81.58 80.2141 80.5031 79.8754L80.5476 79.8747C80.8727 79.8765 81.2034 79.8716 81.5369 79.8635L82.4019 79.8537C82.4019 79.8537 82.3756 79.8453 82.3371 79.8337C84.6371 79.7191 87.1051 79.3461 89.6204 78.5482C86.017 75.8649 81.7301 75.534 79.1246 77.0555L79.2926 76.829C79.2922 76.829 79.2922 76.829 79.2919 76.829C79.9957 75.8776 80.7454 74.7961 81.5481 73.5733C81.237 73.4565 80.9172 73.3657 80.5911 73.3019C80.9874 73.1757 81.4036 73.127 81.8181 73.1575C82.1067 72.713 82.4023 72.2506 82.7056 71.771C78.5411 72.6797 75.4444 75.8937 76.4059 78.6407C74.108 75.5673 68.4629 76.9254 64.7852 81.0285C65.4991 80.9955 66.1882 80.9601 66.853 80.9184Z" fill="#E0E0E0"/>
<path d="M226.694 142.689C226.694 145.622 181.246 148 125.183 148C69.12 148 23.6719 145.622 23.6719 142.689C23.6719 139.755 69.12 137.377 125.183 137.377C181.246 137.377 226.694 139.755 226.694 142.689Z" fill="#F5F5F5"/>
<path d="M237.419 132.81C239.075 131.623 240.754 130.414 242.038 128.795C243.322 127.176 244.183 125.064 243.913 122.973C240.135 124.646 237.056 127.99 235.583 132.018C235.512 127.04 234.59 122.076 232.876 117.434C231.518 119.645 230.998 122.369 231.223 124.994C231.448 127.618 232.388 130.143 233.731 132.367C231.227 129.825 228.313 127.732 225.152 126.205C227.325 130.737 230.632 134.07 235.132 135.887L235.999 135.876C239.793 135.92 242.852 134.144 245.066 132.479C245.998 131.778 247.156 130.691 246.982 130.335C243.724 130.808 240.514 131.639 237.419 132.81Z" fill="#263238"/>
<path d="M218.828 133.272C219.506 132.21 220.193 131.13 220.558 129.906C220.924 128.681 220.933 127.271 220.297 126.132C218.512 127.96 217.512 130.588 217.592 133.239C216.407 130.397 214.737 127.758 212.686 125.485C212.414 127.067 212.742 128.751 213.474 130.206C214.206 131.662 215.326 132.896 216.608 133.865C214.586 132.98 212.432 132.447 210.266 132.296C212.554 134.4 215.219 135.555 218.222 135.564L218.717 135.359C220.906 134.513 222.255 132.791 223.144 131.327C223.518 130.71 223.933 129.82 223.751 129.656C221.989 130.675 220.336 131.889 218.828 133.272Z" fill="#263238"/>
<path d="M28.7927 134.804C29.4709 133.741 30.1571 132.662 30.5229 131.437C30.8883 130.213 30.8974 128.802 30.262 127.663C28.4764 129.492 27.4763 132.119 27.5562 134.77C26.3713 131.928 24.7018 129.289 22.6511 127.017C22.379 128.598 22.7062 130.282 23.4384 131.737C24.1702 133.193 25.2902 134.427 26.573 135.396C24.5507 134.511 22.3965 133.978 20.2305 133.827C22.5189 135.931 25.1836 137.086 28.1864 137.096L28.6815 136.89C30.87 136.045 32.2191 134.322 33.108 132.858C33.4822 132.241 33.8977 131.351 33.7157 131.187C31.9536 132.206 30.3006 133.421 28.7927 134.804Z" fill="#263238"/>
<path d="M126.943 123.296C126.938 123.384 126.93 123.47 126.919 123.557C126.919 123.557 126.919 123.559 126.919 123.562C126.914 123.6 126.909 123.639 126.902 123.678C126.897 123.704 126.892 123.732 126.887 123.759C126.844 123.99 126.776 124.212 126.691 124.423C126.684 124.442 126.676 124.46 126.668 124.479C126.244 125.475 125.373 126.228 124.32 126.503C124.096 126.561 123.864 126.598 123.625 126.611C123.495 126.618 123.365 126.618 123.233 126.61L122.735 126.607C122.591 126.604 122.451 126.601 122.312 126.596C122.037 126.585 121.764 126.569 121.495 126.55C121.228 126.528 120.962 126.504 120.696 126.475C120.497 126.453 120.3 126.429 120.103 126.401C120.034 126.392 119.965 126.382 119.897 126.372C119.366 126.296 118.84 126.198 118.312 126.087C118.264 126.077 118.215 126.065 118.166 126.055C118.124 126.046 118.082 126.036 118.042 126.027C118.025 126.023 118.01 126.02 117.993 126.016C117.954 126.007 117.915 125.998 117.875 125.988C117.806 125.971 117.738 125.955 117.669 125.938C117.609 125.924 117.55 125.909 117.489 125.894C117.428 125.878 117.365 125.862 117.304 125.845C117.257 125.834 117.21 125.821 117.163 125.809C117.105 125.793 117.045 125.777 116.986 125.76C116.904 125.739 116.821 125.716 116.74 125.692C116.216 125.54 115.695 125.37 115.175 125.182C114.656 124.992 114.138 124.781 113.625 124.546C113.112 124.312 112.604 124.054 112.1 123.773C111.599 123.489 111.103 123.184 110.619 122.85C109.649 122.185 108.721 121.407 107.874 120.523C107.027 119.641 106.263 118.65 105.624 117.582C105.302 117.05 105.015 116.497 104.755 115.933C104.627 115.652 104.506 115.366 104.394 115.08C104.281 114.793 104.177 114.504 104.08 114.213C103.888 113.632 103.727 113.045 103.596 112.457C103.531 112.163 103.475 111.87 103.423 111.576C103.399 111.43 103.373 111.284 103.353 111.136L103.321 110.916L103.298 110.737L103.119 109.341L103.032 108.643L102.951 107.944L102.796 106.546C102.746 106.08 102.702 105.614 102.656 105.148C102.562 104.216 102.488 103.282 102.412 102.349C102.393 102.115 102.378 101.883 102.361 101.649L102.313 100.948L102.266 100.248L102.225 99.547C102.118 97.678 102.046 95.8077 102.018 93.9349C102.005 92.9978 102.001 92.0608 102.013 91.1212C102.019 90.6508 102.028 90.1816 102.042 89.7099C102.05 89.4747 102.056 89.2382 102.067 89.0004L102.083 88.6432L102.102 88.2757C102.169 86.9674 102.964 85.799 104.145 85.2522C104.425 85.1226 104.725 85.0285 105.044 84.9738C105.457 84.9039 105.864 84.909 106.253 84.9789C107.682 85.2332 108.862 86.3584 109.117 87.8701L109.129 87.9451L109.185 88.2681L109.238 88.6012L109.344 89.2738C109.411 89.7226 109.481 90.174 109.546 90.6241C109.681 91.5255 109.808 92.4282 109.936 93.331C110.191 95.1364 110.431 96.9418 110.676 98.746L111.426 104.398L112.11 109.549L112.132 109.713L112.15 109.835C112.16 109.918 112.177 109.998 112.188 110.08C112.216 110.24 112.245 110.4 112.28 110.556C112.311 110.714 112.349 110.868 112.389 111.02C112.43 111.172 112.47 111.323 112.519 111.471C112.61 111.767 112.716 112.053 112.834 112.333C112.891 112.472 112.955 112.61 113.019 112.746C113.086 112.881 113.156 113.014 113.225 113.146C113.37 113.41 113.528 113.665 113.701 113.916C113.874 114.165 114.06 114.409 114.262 114.645C114.663 115.118 115.126 115.568 115.644 115.992C116.68 116.837 117.945 117.573 119.339 118.176C119.422 118.213 119.506 118.25 119.592 118.285C119.773 118.362 119.959 118.435 120.145 118.508C120.231 118.541 120.316 118.574 120.403 118.606C120.764 118.743 121.134 118.867 121.505 118.987C121.878 119.106 122.253 119.217 122.625 119.318C122.719 119.343 122.812 119.369 122.906 119.393C122.998 119.417 123.089 119.44 123.18 119.463L123.444 119.528L123.566 119.558L123.619 119.572C123.628 119.575 123.635 119.576 123.641 119.579L123.646 119.581L123.635 119.582C125.57 119.694 127.054 121.356 126.943 123.296Z" fill="#DB3739"/>
<path d="M103.656 86.2832C103.614 87.1325 103.573 87.9806 103.54 88.8299C103.521 89.2546 103.507 89.6779 103.491 90.1026C103.474 90.5273 103.463 90.9507 103.448 91.3753C103.432 91.8 103.426 92.2246 103.412 92.648L103.395 93.2837L103.384 93.9207C103.364 94.7688 103.358 95.6181 103.352 96.4674L103.351 97.7401V98.058L103.355 98.3758L103.364 99.0128C103.365 99.8622 103.402 100.709 103.417 101.558C103.479 103.254 103.58 104.949 103.728 106.643C103.478 104.961 103.324 103.265 103.226 101.567C103.206 101.142 103.187 100.718 103.17 100.293C103.163 100.081 103.15 99.8685 103.146 99.6562L103.131 99.0192L103.118 98.3809L103.112 98.0618L103.111 97.7427L103.105 96.4674C103.117 95.6168 103.123 94.7662 103.151 93.9169L103.17 93.2799L103.196 92.6429C103.214 92.2183 103.229 91.7936 103.254 91.369C103.297 90.5196 103.352 89.6716 103.417 88.8235C103.487 87.9742 103.561 87.1274 103.656 86.2832Z" fill="#FFD2D2"/>
<path d="M107.883 87.082C108.123 89.0235 108.324 90.9675 108.512 92.9128C108.61 93.8855 108.693 94.8581 108.783 95.8321L109.032 98.7525L109.261 101.674L109.367 103.136L109.419 103.868L109.467 104.599C109.598 106.549 109.715 108.499 109.793 110.454C109.552 108.512 109.35 106.568 109.163 104.623L109.092 103.893L109.025 103.163L108.891 101.704L108.642 98.7831L108.414 95.8613C108.346 94.8861 108.269 93.9122 108.208 92.937C108.079 90.9866 107.962 89.0362 107.883 87.082Z" fill="#FFD2D2"/>
<path d="M105.326 84.9199C105.335 87.103 105.355 89.2835 105.392 91.464C105.415 92.5536 105.432 93.6433 105.467 94.7329C105.497 95.8225 105.534 96.9109 105.584 97.9992C105.626 99.0876 105.688 100.176 105.757 101.262C105.819 102.349 105.913 103.433 106.007 104.519L106.085 105.332L106.172 106.144C106.199 106.415 106.236 106.684 106.268 106.955C106.284 107.09 106.3 107.226 106.317 107.361L106.373 107.765C106.518 108.845 106.696 109.92 106.921 110.988C106.611 109.941 106.382 108.87 106.184 107.796C105.991 106.72 105.828 105.638 105.703 104.552C105.669 104.281 105.64 104.009 105.61 103.737C105.582 103.465 105.552 103.194 105.529 102.921L105.454 102.105L105.388 101.288C105.364 101.016 105.35 100.743 105.331 100.471C105.313 100.198 105.294 99.9254 105.28 99.6533L105.234 98.8358L105.195 98.017C105.151 96.9248 105.116 95.8339 105.098 94.7418C105.085 93.6496 105.075 92.5574 105.088 91.4653C105.094 90.9198 105.099 90.3731 105.112 89.8277C105.125 89.2822 105.139 88.7368 105.158 88.1913C105.197 87.1004 105.244 86.0095 105.326 84.9199Z" fill="#FFD2D2"/>
<path d="M103.795 86.1445C103.654 88.2996 103.562 90.4585 103.521 92.6162C103.476 94.7751 103.477 96.934 103.533 99.0903C103.594 101.247 103.705 103.403 103.913 105.548C104.017 106.621 104.143 107.692 104.303 108.756C104.464 109.821 104.653 110.882 104.895 111.929C105.135 112.977 105.417 114.017 105.785 115.024C105.872 115.277 105.974 115.525 106.073 115.774C106.124 115.897 106.18 116.019 106.232 116.143C106.259 116.204 106.286 116.266 106.314 116.326L106.4 116.506L106.486 116.687C106.514 116.747 106.544 116.808 106.577 116.866L106.764 117.22C106.898 117.45 107.028 117.683 107.178 117.902C107.47 118.346 107.799 118.767 108.174 119.14L108.465 119.408L108.775 119.665L109.087 119.92C109.191 120.005 109.299 120.084 109.406 120.166C110.259 120.818 111.156 121.41 112.091 121.942C113.025 122.473 113.997 122.94 114.991 123.352C115.985 123.764 117.005 124.117 118.041 124.41L118.43 124.52L118.821 124.622C119.08 124.692 119.343 124.75 119.605 124.814C120.131 124.932 120.659 125.039 121.191 125.132C121.722 125.222 122.256 125.3 122.793 125.361C123.061 125.393 123.329 125.419 123.597 125.441C123.867 125.462 124.136 125.48 124.406 125.488C123.325 125.48 122.247 125.368 121.178 125.209C120.643 125.128 120.111 125.03 119.581 124.923C119.316 124.865 119.052 124.811 118.789 124.747L118.393 124.651L118.001 124.548C115.909 123.99 113.876 123.193 111.976 122.141C111.027 121.616 110.113 121.026 109.247 120.369C109.139 120.286 109.028 120.208 108.922 120.122L108.606 119.866L108.289 119.609L107.983 119.33C107.589 118.944 107.247 118.51 106.943 118.055C106.788 117.83 106.652 117.592 106.514 117.356L106.322 116.995C106.289 116.935 106.26 116.874 106.231 116.812L106.142 116.627L106.053 116.443C106.024 116.381 105.998 116.318 105.97 116.256C105.916 116.131 105.86 116.007 105.807 115.881C105.707 115.628 105.603 115.376 105.514 115.119C105.14 114.097 104.851 113.048 104.608 111.992C104.366 110.934 104.179 109.866 104.02 108.795C103.862 107.723 103.735 106.649 103.637 105.571C103.539 104.493 103.465 103.413 103.411 102.334C103.355 101.253 103.321 100.172 103.304 99.0916C103.287 98.0109 103.284 96.9289 103.298 95.8481C103.312 94.7674 103.338 93.6867 103.378 92.6072C103.421 91.5278 103.474 90.4483 103.543 89.3702C103.577 88.8311 103.613 88.292 103.655 87.7529C103.697 87.2202 103.743 86.6823 103.795 86.1445Z" fill="#FF5B5D"/>
<path d="M107.883 86.7812L108.029 88.1328L108.17 89.4843L108.451 92.1874L108.723 94.8905L108.99 97.5935L109.252 100.298L109.51 103.002L110.012 108.412L110.135 109.765L110.196 110.441C110.227 110.658 110.267 110.879 110.313 111.096C110.502 111.967 110.822 112.81 111.256 113.59C111.691 114.369 112.241 115.083 112.886 115.703C113.208 116.013 113.552 116.296 113.917 116.558C114.282 116.824 114.652 117.082 115.028 117.331C116.531 118.329 118.117 119.209 119.782 119.912C120.198 120.089 120.619 120.253 121.045 120.404C121.469 120.557 121.9 120.697 122.335 120.82C123.204 121.071 124.09 121.264 124.986 121.396C124.536 121.344 124.087 121.277 123.642 121.194C123.196 121.111 122.755 121.007 122.316 120.893C121.878 120.778 121.441 120.649 121.012 120.505C120.581 120.362 120.153 120.207 119.731 120.04C118.044 119.364 116.432 118.506 114.908 117.517C114.526 117.269 114.15 117.015 113.78 116.752C113.406 116.491 113.046 116.198 112.714 115.883C112.047 115.253 111.475 114.521 111.021 113.72C110.566 112.922 110.235 112.052 110.037 111.153C109.988 110.928 109.948 110.703 109.913 110.472L109.85 109.796L109.724 108.443L109.233 103.029L108.995 100.322L108.761 97.6139L108.531 94.9057L108.307 92.1976L108.093 89.4881L107.986 88.1341L107.883 86.7812Z" fill="#FF5B5D"/>
<path d="M105.435 84.9199C105.398 87.0089 105.391 89.0991 105.419 91.1881C105.442 93.2771 105.496 95.3648 105.589 97.4512C105.686 99.5364 105.813 101.622 106.019 103.698C106.12 104.737 106.239 105.773 106.385 106.804C106.459 107.32 106.537 107.835 106.628 108.347C106.715 108.861 106.815 109.372 106.924 109.88C107.032 110.388 107.153 110.894 107.29 111.395C107.428 111.896 107.58 112.392 107.759 112.876C107.94 113.361 108.146 113.835 108.396 114.282C108.527 114.508 108.654 114.734 108.788 114.958L108.99 115.291L109.091 115.457L109.195 115.621C109.752 116.499 110.358 117.344 111.056 118.11C111.143 118.206 111.229 118.303 111.321 118.393L111.593 118.67C111.782 118.846 111.967 119.029 112.165 119.194C112.357 119.367 112.563 119.523 112.766 119.685C112.871 119.762 112.976 119.836 113.08 119.912C113.134 119.949 113.185 119.99 113.239 120.024L113.402 120.13L113.565 120.237L113.646 120.29L113.73 120.34L114.064 120.538C114.176 120.602 114.292 120.661 114.406 120.724L114.578 120.815L114.754 120.9C115.216 121.133 115.7 121.328 116.184 121.512C117.159 121.87 118.165 122.153 119.182 122.38C121.216 122.846 123.287 123.138 125.357 123.428C124.839 123.371 124.319 123.314 123.8 123.251C123.281 123.188 122.764 123.12 122.245 123.047C121.21 122.9 120.177 122.732 119.151 122.52C118.127 122.308 117.111 122.038 116.119 121.691C115.626 121.513 115.135 121.32 114.662 121.088L114.484 121.005L114.309 120.913C114.192 120.851 114.075 120.792 113.959 120.729L113.617 120.53L113.532 120.481L113.448 120.427L113.281 120.321L113.115 120.214C113.059 120.178 113.007 120.139 112.952 120.102C112.844 120.026 112.736 119.951 112.629 119.873C112.42 119.712 112.208 119.554 112.01 119.38C111.805 119.213 111.617 119.028 111.422 118.85L111.144 118.569C111.05 118.476 110.961 118.379 110.872 118.281C110.155 117.507 109.534 116.652 108.966 115.769L108.859 115.604L108.756 115.436L108.551 115.1C108.417 114.875 108.287 114.646 108.155 114.42C107.894 113.956 107.682 113.469 107.496 112.974C107.312 112.48 107.155 111.976 107.016 111.47C106.876 110.963 106.751 110.453 106.642 109.939C106.532 109.426 106.433 108.911 106.347 108.394C106.258 107.878 106.179 107.36 106.106 106.841C105.963 105.803 105.843 104.763 105.748 103.721C105.651 102.678 105.575 101.636 105.511 100.59C105.48 100.068 105.452 99.5465 105.428 99.024C105.405 98.5014 105.383 97.9789 105.365 97.4563C105.293 95.3661 105.269 93.2745 105.28 91.1843C105.288 90.1392 105.304 89.094 105.33 88.0489C105.342 87.5264 105.356 87.0038 105.374 86.4825C105.388 85.965 105.408 85.4425 105.435 84.9199Z" fill="#FF5B5D"/>
<path opacity="0.25" d="M102.007 90.7908C102.012 90.3204 102.023 89.8512 102.037 89.3795C102.044 89.1443 102.051 88.9078 102.062 88.6701L102.077 88.3128L102.096 87.9454C102.164 86.637 102.958 85.4686 104.14 84.9219C102.338 89.1189 103.869 112.7 109.127 118.166C111.45 120.581 115.495 122.082 119.451 122.999C121.739 123.529 123.707 121.313 122.917 119.102C122.912 119.089 122.907 119.075 122.903 119.063C122.995 119.087 123.087 119.11 123.177 119.132L123.441 119.199L123.563 119.229L123.617 119.243C123.624 119.246 123.632 119.248 123.638 119.249C123.641 119.251 123.643 119.252 123.643 119.252L123.632 119.253C125.572 119.364 127.055 121.026 126.944 122.966C126.939 123.054 126.931 123.14 126.92 123.225C126.92 123.225 126.92 123.226 126.919 123.23C126.914 123.268 126.908 123.308 126.902 123.346C126.897 123.373 126.893 123.401 126.887 123.427C126.844 123.659 126.777 123.88 126.691 124.091C126.683 124.109 126.676 124.128 126.668 124.147C126.652 124.185 126.635 124.222 126.619 124.259C126.613 124.269 126.61 124.278 126.605 124.288C126.591 124.316 126.577 124.345 126.563 124.373C126.558 124.382 126.552 124.392 126.549 124.401C126.51 124.474 126.47 124.545 126.427 124.615C126.421 124.624 126.416 124.631 126.411 124.639C126.394 124.667 126.377 124.694 126.359 124.72C126.354 124.728 126.349 124.736 126.343 124.745C126.297 124.812 126.249 124.878 126.198 124.943C126.193 124.949 126.186 124.957 126.181 124.963C126.161 124.989 126.139 125.014 126.119 125.04C126.113 125.047 126.106 125.055 126.1 125.062C126.073 125.093 126.048 125.122 126.021 125.151L126.02 125.153C125.992 125.183 125.964 125.212 125.936 125.242C125.931 125.247 125.926 125.252 125.921 125.257C125.899 125.279 125.876 125.3 125.853 125.322C125.843 125.331 125.834 125.341 125.824 125.35C125.797 125.374 125.771 125.398 125.743 125.422C125.74 125.425 125.736 125.427 125.734 125.43C125.703 125.457 125.673 125.482 125.642 125.506C125.633 125.513 125.624 125.52 125.617 125.527C125.594 125.544 125.57 125.563 125.547 125.581C125.537 125.589 125.526 125.596 125.516 125.604C125.49 125.623 125.463 125.643 125.436 125.661C125.43 125.665 125.425 125.67 125.418 125.674C125.387 125.696 125.353 125.717 125.32 125.739C125.31 125.745 125.3 125.752 125.29 125.758C125.266 125.773 125.242 125.787 125.217 125.802C125.206 125.809 125.193 125.816 125.182 125.823C125.155 125.838 125.128 125.853 125.1 125.867C125.093 125.872 125.084 125.876 125.076 125.88C125.042 125.898 125.008 125.916 124.972 125.932C124.961 125.937 124.949 125.942 124.938 125.949C124.912 125.96 124.887 125.973 124.861 125.984C124.849 125.991 124.836 125.996 124.823 126.001C124.795 126.012 124.767 126.025 124.738 126.036C124.729 126.04 124.72 126.044 124.711 126.048C124.675 126.062 124.638 126.076 124.601 126.088C124.589 126.092 124.579 126.096 124.568 126.1C124.54 126.109 124.512 126.119 124.484 126.128C124.471 126.132 124.458 126.136 124.446 126.139C124.414 126.148 124.383 126.157 124.352 126.166C124.344 126.169 124.336 126.17 124.329 126.172C124.326 126.172 124.324 126.174 124.321 126.174C124.285 126.183 124.25 126.191 124.216 126.199C124.2 126.203 124.186 126.205 124.171 126.209C124.141 126.216 124.111 126.222 124.081 126.227C124.074 126.228 124.068 126.23 124.06 126.231C124.025 126.237 123.989 126.242 123.954 126.249C123.941 126.251 123.927 126.252 123.913 126.255C123.879 126.26 123.844 126.264 123.81 126.268C123.795 126.269 123.778 126.27 123.763 126.273C123.739 126.275 123.715 126.277 123.69 126.279C123.671 126.28 123.652 126.282 123.633 126.283C123.631 126.283 123.627 126.283 123.627 126.283C123.594 126.286 123.561 126.287 123.528 126.287C123.516 126.287 123.505 126.287 123.495 126.288C123.462 126.288 123.43 126.289 123.397 126.288C123.385 126.288 123.375 126.288 123.364 126.288C123.322 126.287 123.278 126.286 123.237 126.283L122.738 126.28C122.594 126.278 122.455 126.274 122.316 126.269C122.039 126.259 121.768 126.242 121.498 126.223C121.35 126.212 121.201 126.198 121.052 126.184C120.922 126.171 120.793 126.157 120.663 126.143C120.555 126.132 120.447 126.118 120.339 126.104C120.305 126.1 120.27 126.095 120.236 126.09C120.193 126.083 120.149 126.078 120.106 126.073V126.072C120.038 126.062 119.969 126.053 119.899 126.043C119.369 125.966 118.842 125.869 118.315 125.758C118.266 125.748 118.217 125.736 118.167 125.726C118.125 125.717 118.085 125.707 118.043 125.698C118.026 125.694 118.011 125.691 117.994 125.687C117.955 125.678 117.916 125.669 117.876 125.659C117.807 125.642 117.739 125.626 117.67 125.609C117.61 125.595 117.551 125.58 117.491 125.565C117.429 125.549 117.368 125.533 117.305 125.518C117.258 125.506 117.211 125.493 117.164 125.481C117.106 125.464 117.046 125.449 116.986 125.432C116.903 125.41 116.822 125.388 116.739 125.364C116.216 125.212 115.694 125.042 115.174 124.854C114.654 124.664 114.137 124.453 113.624 124.218C113.111 123.984 112.603 123.726 112.1 123.445C111.599 123.162 111.102 122.856 110.619 122.521C109.649 121.856 108.721 121.078 107.874 120.194C107.027 119.312 106.263 118.32 105.623 117.253C105.302 116.721 105.014 116.167 104.755 115.604C104.625 115.322 104.506 115.037 104.394 114.75C104.281 114.462 104.176 114.174 104.08 113.883C103.888 113.302 103.726 112.714 103.597 112.127C103.531 111.833 103.475 111.539 103.424 111.246C103.4 111.1 103.374 110.952 103.354 110.806L103.322 110.586L103.299 110.407L103.12 109.011L103.032 108.313L102.952 107.614L102.797 106.217C102.747 105.752 102.703 105.285 102.657 104.819C102.563 103.887 102.489 102.953 102.413 102.02C102.394 101.786 102.379 101.554 102.362 101.32L102.314 100.619L102.267 99.9185L102.226 99.2179C102.119 97.3489 102.047 95.4786 102.019 93.6045C101.998 92.6675 101.995 91.7292 102.007 90.7908Z" fill="#FF5B5D"/>
<path opacity="0.25" d="M106.246 84.9805C106.647 87.5539 107.369 96.4209 107.882 103.793C108.429 111.632 112.794 116.63 119.586 118.287C119.501 118.251 119.417 118.216 119.333 118.178C117.94 117.575 116.674 116.839 115.638 115.993C115.119 115.57 114.658 115.12 114.255 114.647C114.053 114.41 113.868 114.166 113.694 113.917C113.523 113.667 113.364 113.411 113.219 113.148C113.147 113.016 113.078 112.882 113.011 112.747C112.947 112.611 112.883 112.475 112.826 112.334C112.708 112.056 112.602 111.768 112.51 111.472C112.463 111.325 112.421 111.173 112.381 111.022C112.343 110.869 112.305 110.716 112.271 110.558C112.237 110.402 112.208 110.241 112.18 110.081C112.167 110 112.153 109.92 112.142 109.837L112.124 109.715L112.102 109.551L110.668 98.7463C110.423 96.9421 110.182 95.1367 109.928 93.3313C109.8 92.4285 109.673 91.5258 109.538 90.6244C109.473 90.1743 109.403 89.7229 109.336 89.2741L109.23 88.6028L109.177 88.2684L109.122 87.9455L109.109 87.8717C108.855 86.36 107.674 85.236 106.246 84.9805Z" fill="#FFD2D2"/>
<path d="M108.84 96.1665L109.795 95.1163L109.106 95.4889L108.942 94.6484L108.84 96.1665Z" fill="#FFD2D2"/>
<path d="M105.517 99.0439L106.001 96.8672L105.351 97.9123L104.473 96.8939L105.517 99.0439Z" fill="#FFD2D2"/>
<path d="M108.219 90.5982L108.641 88.7012L108.074 89.6115L107.309 88.7241L108.219 90.5982Z" fill="#FFD2D2"/>
<path d="M105.235 88.9648L106.149 86.9534L105.305 87.8345L104.66 86.666L105.235 88.9648Z" fill="#FFD2D2"/>
<path d="M103.313 95.7544L103.699 94.4435L103.258 95.0564L102.764 94.3965L103.313 95.7544Z" fill="#FFD2D2"/>
<path d="M103.598 104.785L103.984 103.172L103.488 103.941L102.846 103.173L103.598 104.785Z" fill="#FFD2D2"/>
<path d="M109.62 105.559L110.543 103.53L109.691 104.418L109.043 103.24L109.62 105.559Z" fill="#FFD2D2"/>
<path d="M106.918 110.495L107.261 108.293L106.68 109.378L105.738 108.418L106.918 110.495Z" fill="#FFD2D2"/>
<path d="M110.959 118.155L110.779 115.934L110.467 117.124L109.326 116.409L110.959 118.155Z" fill="#FFD2D2"/>
<path d="M119.411 122.472L117.91 120.824L118.39 121.957L117.053 122.089L119.411 122.472Z" fill="#FFD2D2"/>
<path d="M119.9 120.022L119.095 117.943L119.135 119.173L117.838 118.813L119.9 120.022Z" fill="#FFD2D2"/>
<path d="M105.766 115.017L106.109 112.814L105.528 113.899L104.586 112.939L105.766 115.017Z" fill="#FFD2D2"/>
<path d="M110.961 113.28L111.304 111.078L110.723 112.163L109.781 111.201L110.961 113.28Z" fill="#FFD2D2"/>
<path d="M147.618 96.4095C147.618 103.156 146.713 110.517 145.272 117.463C144.147 122.885 142.695 128.053 141.093 132.48C139.536 136.783 137.837 140.383 136.156 142.835H127.357C121.73 134.63 115.895 113.541 115.895 96.4095C115.895 82.6983 116.607 70.6222 120.651 63.5619C121.999 61.2072 123.719 59.4119 125.906 58.2994C127.571 57.4514 129.507 57 131.757 57C132.096 57 132.428 57.0102 132.754 57.0305C138.507 57.3903 142.071 60.9033 144.26 66.518C147.078 73.7448 147.618 84.4567 147.618 96.4095Z" fill="#DB3739"/>
<path d="M126.257 60.8457C125.898 61.6454 125.578 62.4617 125.27 63.2818C124.961 64.1019 124.669 64.927 124.391 65.7585C124.115 66.5888 123.848 67.4241 123.595 68.262C123.342 69.0999 123.105 69.9428 122.875 70.7871C122.418 72.4768 122.006 74.178 121.639 75.8893C121.546 76.3166 121.462 76.7463 121.372 77.1735L121.119 78.4615L120.883 79.752L120.665 81.0463C120.385 82.7729 120.147 84.5071 119.952 86.2439C119.756 87.982 119.606 89.7251 119.496 91.4695C119.271 94.9596 119.228 98.4599 119.353 101.955C119.418 103.702 119.518 105.448 119.665 107.191C119.701 107.627 119.747 108.062 119.788 108.497L119.85 109.149L119.924 109.8C119.973 110.233 120.019 110.67 120.074 111.103L120.243 112.404C120.479 114.135 120.745 115.865 121.07 117.584C121.222 118.444 121.406 119.3 121.578 120.157C121.62 120.372 121.669 120.584 121.715 120.798L121.856 121.439C121.952 121.866 122.042 122.293 122.147 122.718L122.455 123.993C122.505 124.207 122.561 124.418 122.616 124.629L122.782 125.263L122.948 125.898L123.031 126.215L123.12 126.531L123.475 127.795C123.589 128.217 123.72 128.635 123.845 129.053C123.972 129.472 124.095 129.892 124.225 130.309L124.628 131.559L124.829 132.184L125.041 132.805C126.161 136.122 127.439 139.389 128.841 142.602C127.33 139.438 125.985 136.194 124.792 132.892C123.598 129.591 122.59 126.222 121.74 122.813C121.629 122.388 121.533 121.96 121.433 121.533L121.283 120.891C121.233 120.677 121.181 120.463 121.137 120.249C120.956 119.389 120.765 118.531 120.606 117.668C120.267 115.943 119.987 114.208 119.737 112.47L119.56 111.164C119.504 110.728 119.458 110.292 119.406 109.856L119.331 109.201L119.266 108.545C119.224 108.108 119.178 107.67 119.14 107.233L119.035 105.919L119.008 105.591L118.988 105.262L118.946 104.605L118.904 103.947C118.891 103.729 118.882 103.509 118.872 103.289L118.842 102.63L118.826 102.301C118.82 102.192 118.816 102.081 118.814 101.972C118.753 100.216 118.741 98.4574 118.767 96.7002C118.792 94.9431 118.867 93.1873 118.988 91.4339C119.11 89.6806 119.274 87.9311 119.482 86.1867L119.648 84.8797L119.831 83.5752L120.033 82.2732L120.252 80.9738C120.554 79.2434 120.897 77.5206 121.295 75.8105C121.692 74.1004 122.132 72.3993 122.622 70.7133C122.869 69.8716 123.126 69.0325 123.397 68.1972C123.669 67.3631 123.951 66.5316 124.252 65.7077C124.55 64.8825 124.863 64.0637 125.195 63.2513C125.529 62.4414 125.874 61.634 126.257 60.8457Z" fill="#FF5B5D"/>
<path d="M136.927 59.6934C137.505 61.3564 138.014 63.0436 138.494 64.7384C138.734 65.5852 138.964 66.4358 139.185 67.2889C139.409 68.1408 139.622 68.9965 139.83 69.8521C140.241 71.566 140.621 73.2863 140.974 75.0129C141.328 76.7395 141.643 78.4738 141.934 80.2131C142.009 80.6479 142.077 81.0827 142.147 81.5176L142.25 82.1711L142.347 82.8246L142.444 83.4781L142.534 84.1329C142.594 84.569 142.655 85.0064 142.71 85.4438C142.936 87.192 143.132 88.9453 143.292 90.7012C143.454 92.457 143.574 94.218 143.667 95.9789C143.755 97.7411 143.807 99.5046 143.825 101.268L143.829 102.592L143.813 103.915C143.811 104.356 143.796 104.798 143.784 105.239L143.766 105.9C143.761 106.121 143.749 106.341 143.741 106.561C143.677 108.325 143.562 110.087 143.407 111.844C143.254 113.602 143.04 115.354 142.789 117.101C142.723 117.537 142.662 117.975 142.592 118.41L142.372 119.715L142.316 120.042L142.253 120.368L142.129 121.017L142.004 121.667C141.962 121.883 141.914 122.099 141.868 122.314C141.775 122.745 141.686 123.177 141.591 123.609L141.287 124.896L141.211 125.218C141.185 125.325 141.156 125.432 141.129 125.539L140.964 126.179C140.854 126.607 140.745 127.034 140.62 127.457L140.255 128.73L139.861 129.994L139.761 130.309L139.712 130.467L139.658 130.623L139.446 131.25L139.234 131.877L139.127 132.189L139.012 132.5L138.554 133.741C138.517 133.844 138.476 133.947 138.434 134.048L138.311 134.356L138.065 134.97L137.819 135.584L137.557 136.192L137.295 136.798C137.206 137.001 137.123 137.204 137.027 137.402C136.299 139.008 135.496 140.577 134.643 142.118L135.236 140.938L135.385 140.643L135.459 140.496L135.529 140.347L135.808 139.749L136.089 139.152L136.231 138.853L136.363 138.552L136.89 137.343C136.981 137.142 137.058 136.937 137.142 136.734L137.39 136.123L137.638 135.513L137.871 134.896L138.102 134.28L138.218 133.971C138.257 133.868 138.295 133.765 138.331 133.66L138.762 132.414L138.87 132.103L138.971 131.789L139.171 131.162L139.372 130.535L139.423 130.379L139.47 130.221L139.563 129.905L139.934 128.641L140.276 127.368C140.716 125.668 141.126 123.959 141.455 122.234C141.497 122.019 141.544 121.804 141.582 121.588L141.698 120.94L141.813 120.291L141.872 119.967L141.924 119.642L142.133 118.341C142.2 117.907 142.257 117.471 142.32 117.038C142.557 115.298 142.757 113.553 142.897 111.802C143.04 110.052 143.156 108.299 143.213 106.543C143.221 106.323 143.232 106.105 143.237 105.885L143.254 105.226C143.263 104.787 143.278 104.349 143.279 103.909L143.291 102.592L143.285 101.274C143.271 99.5173 143.223 97.7615 143.14 96.0069C143.053 94.2523 142.93 92.499 142.782 90.7482C142.49 87.2454 142.05 83.7553 141.518 80.2805C141.251 78.5424 140.95 76.8107 140.627 75.0816C140.304 73.3537 139.951 71.6296 139.572 69.9119C139.194 68.1942 138.785 66.4828 138.349 64.7778C138.13 63.926 137.904 63.0754 137.667 62.2273C137.435 61.3793 137.192 60.5338 136.927 59.6934Z" fill="#FF5B5D"/>
<path d="M129.915 59.6934C129.835 60.5529 129.761 61.4123 129.692 62.2718C129.62 63.1313 129.55 63.9921 129.484 64.8516C129.352 66.5718 129.224 68.2921 129.11 70.0136C128.993 71.7351 128.883 73.4567 128.784 75.1782C128.685 76.8997 128.588 78.6225 128.505 80.3453C128.463 81.2073 128.424 82.0681 128.387 82.9301L128.331 84.2219L128.279 85.515C128.212 87.2378 128.156 88.9618 128.109 90.6859C128.014 94.1341 127.953 97.5822 127.955 101.03C127.95 102.754 127.96 104.478 127.984 106.203C127.994 107.065 128.013 107.927 128.031 108.789L128.065 110.08L128.103 111.372C128.128 112.234 128.162 113.095 128.195 113.957L128.253 115.249C128.271 115.68 128.295 116.11 128.318 116.539C128.41 118.261 128.519 119.981 128.651 121.7C128.714 122.56 128.793 123.418 128.868 124.276L128.992 125.563C129.034 125.991 129.081 126.42 129.126 126.848C129.31 128.562 129.521 130.273 129.773 131.978C130.022 133.683 130.312 135.383 130.645 137.076C130.809 137.922 130.993 138.764 131.184 139.606C131.283 140.025 131.381 140.445 131.483 140.864L131.807 142.117L131.444 140.875C131.328 140.459 131.217 140.042 131.104 139.625C130.89 138.788 130.684 137.949 130.498 137.106C130.12 135.42 129.798 133.723 129.511 132.019C128.952 128.609 128.533 125.176 128.232 121.734C128.152 120.875 128.087 120.013 128.017 119.152C127.957 118.29 127.895 117.429 127.845 116.566C127.819 116.135 127.792 115.704 127.77 115.273L127.703 113.979C127.664 113.115 127.623 112.253 127.591 111.39C127.526 109.663 127.483 107.937 127.455 106.21C127.427 104.484 127.412 102.756 127.414 101.029C127.419 99.3024 127.436 97.5746 127.468 95.8479L127.493 94.5536L127.522 93.2593L127.557 91.965L127.597 90.6707C127.718 87.2187 127.871 83.7693 128.084 80.3224C128.19 78.5996 128.302 76.8768 128.43 75.1553C128.559 73.4338 128.696 71.7135 128.845 69.9933C128.997 68.2743 129.156 66.5553 129.333 64.8376C129.422 63.9794 129.512 63.1212 129.608 62.2629C129.709 61.4073 129.808 60.5503 129.915 59.6934Z" fill="#FF5B5D"/>
<path d="M133.97 59.6934C134.093 60.5478 134.209 61.4034 134.322 62.2591C134.432 63.1148 134.539 63.9717 134.644 64.8287C134.851 66.5426 135.041 68.259 135.225 69.9755C135.404 71.6932 135.572 73.4109 135.729 75.1312C135.888 76.8501 136.028 78.5717 136.163 80.2932C136.435 83.7362 136.644 87.1844 136.818 90.6351L136.879 91.9294L136.932 93.2237L136.982 94.518L137.026 95.8124C137.085 97.539 137.125 99.2656 137.156 100.993C137.184 102.72 137.191 104.448 137.186 106.176C137.183 107.904 137.161 109.632 137.118 111.358C137.105 111.791 137.097 112.222 137.082 112.654L137.039 113.949L136.987 115.245L136.959 115.892L136.927 116.539C136.888 117.403 136.836 118.265 136.785 119.128C136.725 119.99 136.669 120.852 136.598 121.713C136.331 125.158 135.942 128.596 135.404 132.01C135.127 133.716 134.814 135.416 134.443 137.104C134.258 137.948 134.055 138.787 133.844 139.625C133.731 140.042 133.621 140.459 133.507 140.876L133.145 142.119L133.467 140.866C133.569 140.446 133.666 140.027 133.765 139.606C133.954 138.764 134.136 137.921 134.298 137.074C134.624 135.381 134.905 133.68 135.144 131.972C135.386 130.264 135.583 128.552 135.754 126.837C135.794 126.407 135.839 125.978 135.876 125.55L135.989 124.262C136.056 123.403 136.126 122.543 136.179 121.684C136.295 119.963 136.387 118.242 136.458 116.519L136.485 115.873L136.507 115.227L136.551 113.935L136.585 112.642C136.596 112.211 136.603 111.78 136.612 111.349C136.621 110.918 136.628 110.487 136.633 110.056L136.651 108.763L136.661 107.47C136.665 107.039 136.664 106.608 136.665 106.177C136.666 104.453 136.652 102.728 136.622 101.004C136.574 97.5542 136.462 94.1073 136.314 90.6605C136.24 88.9377 136.157 87.2136 136.061 85.4921L135.987 84.2003L135.911 82.9085C135.859 82.0478 135.807 81.187 135.75 80.3262C135.638 78.6047 135.512 76.8832 135.384 75.1629C135.255 73.4427 135.115 71.7224 134.966 70.0034C134.823 68.2832 134.663 66.5655 134.5 64.8478C134.419 63.9883 134.332 63.1301 134.244 62.2718C134.155 61.4098 134.066 60.5516 133.97 59.6934Z" fill="#FF5B5D"/>
<path d="M126.256 60.8457C126.046 61.3505 125.853 61.8616 125.666 62.374C125.479 62.8864 125.299 63.4013 125.127 63.9188C125.042 64.1781 124.954 64.4362 124.871 64.6956L124.622 65.475C124.465 65.9976 124.301 66.5176 124.153 67.0427C123.843 68.0878 123.563 69.1418 123.291 70.1971L122.898 71.7839L122.532 73.377L122.191 74.9752L121.872 76.5772C121.77 77.1125 121.676 77.649 121.577 78.1843C121.553 78.3178 121.528 78.4526 121.506 78.5861L121.44 78.9891L121.308 79.7952C121.264 80.0647 121.217 80.3318 121.178 80.6013L121.057 81.4099L120.936 82.2173L120.907 82.4195L120.88 82.6216L120.827 83.0272L120.721 83.8371L120.668 84.2427C120.65 84.3775 120.632 84.5122 120.618 84.6483L120.438 86.2719L120.392 86.6775L120.353 87.0844L120.275 87.8981L120.198 88.7105C120.184 88.8466 120.173 88.9813 120.163 89.1174L120.133 89.5242L120.009 91.1542L119.917 92.7855L119.868 93.6017L119.836 94.418L119.773 96.0518L119.744 97.6869L119.726 98.5044C119.722 98.7765 119.725 99.0499 119.723 99.3219C119.706 103.683 119.894 108.045 120.246 112.402C119.631 108.075 119.304 103.702 119.227 99.3258C119.222 99.0524 119.213 98.7778 119.211 98.5044V97.6831L119.217 96.0404L119.259 94.3989L119.28 93.5776L119.316 92.7575C119.341 92.2108 119.37 91.6641 119.398 91.1174L119.515 89.4785L119.544 89.0691C119.554 88.933 119.563 88.7957 119.576 88.6597L119.651 87.8409L119.726 87.0233L119.763 86.6139C119.777 86.4779 119.792 86.3418 119.807 86.2058L119.995 84.5733C120.011 84.4372 120.028 84.3012 120.048 84.1651L120.102 83.7583L120.212 82.9445L120.266 82.5377L120.294 82.3343L120.325 82.1308L120.449 81.3184L120.574 80.5059L120.606 80.3025L120.641 80.1003L120.713 79.696L120.856 78.8874L120.927 78.4831C120.952 78.3483 120.98 78.2148 121.005 78.08C121.112 77.5422 121.213 77.0044 121.323 76.4678L121.667 74.862L122.046 73.2638L122.451 71.672C122.596 71.1443 122.735 70.6142 122.887 70.089L123.118 69.3008L123.234 68.9066L123.355 68.5137L123.599 67.7293C123.68 67.4686 123.766 67.208 123.853 66.9486C124.022 66.4286 124.208 65.9124 124.387 65.3962L124.668 64.6257C124.761 64.3689 124.862 64.1146 124.959 63.859C125.156 63.3492 125.362 62.8419 125.574 62.3384C125.794 61.8374 126.013 61.3352 126.256 60.8457Z" fill="#FFD2D2"/>
<path d="M129.914 59.6934C129.679 61.8395 129.454 63.9857 129.261 66.1357L129.185 66.9418L129.113 67.7479L128.97 69.3601L128.7 72.5857L128.455 75.8139C128.434 76.0835 128.413 76.3517 128.395 76.6213L128.342 77.4286L128.234 79.0434L128.179 79.8507C128.16 80.1203 128.141 80.3885 128.127 80.6581L128.033 82.2741C127.972 83.351 127.902 84.4279 127.859 85.5061L127.703 88.7393L127.59 91.9739C127.543 93.0521 127.527 94.1302 127.503 95.2084L127.467 96.8257L127.448 97.6343L127.443 98.443L127.42 101.68C127.41 102.219 127.422 102.759 127.426 103.299L127.444 104.917L127.457 106.536C127.457 106.805 127.467 107.075 127.475 107.344L127.499 108.153L127.548 109.771L127.592 111.39L127.497 109.774L127.41 108.157L127.365 107.348C127.351 107.079 127.333 106.809 127.327 106.539L127.276 104.921L127.23 103.301C127.216 102.762 127.195 102.222 127.196 101.681L127.176 98.4417C127.191 94.1226 127.289 89.801 127.517 85.4883C127.562 84.4088 127.635 83.3319 127.698 82.2537L127.796 80.6365C127.812 80.3669 127.831 80.0974 127.851 79.8278L127.911 79.0205L128.03 77.4045L128.09 76.5971C128.11 76.3276 128.134 76.0593 128.156 75.7898C128.246 74.7141 128.335 73.6372 128.434 72.5628C128.83 68.2628 129.308 63.9692 129.914 59.6934Z" fill="#FFD2D2"/>
<path d="M133.969 59.6934C134.296 61.8052 134.578 63.9234 134.85 66.0442C134.982 67.1046 135.112 68.1649 135.236 69.2266C135.362 70.2882 135.478 71.3499 135.594 72.4128C135.828 74.5374 136.032 76.6658 136.226 78.7942C136.276 79.3256 136.32 79.8584 136.365 80.3911C136.41 80.9238 136.456 81.4566 136.496 81.9893L136.622 83.5875L136.741 85.1857C136.78 85.7184 136.812 86.2524 136.847 86.7852L136.899 87.5849L136.946 88.3846C136.977 88.9186 137.011 89.4514 137.039 89.9854L137.122 91.5861C137.149 92.1201 137.169 92.6541 137.192 93.1881L137.226 93.9891L137.254 94.7901C137.272 95.3241 137.294 95.8581 137.308 96.3921L137.346 97.9954C137.389 100.133 137.405 102.271 137.374 104.409C137.337 106.546 137.267 108.683 137.126 110.815C137.18 108.679 137.199 106.543 137.182 104.407L137.164 102.805C137.156 102.271 137.142 101.737 137.131 101.205L137.113 100.404L137.09 99.6025L137.067 98.8028C137.06 98.5358 137.052 98.2688 137.041 98.0018C136.964 95.8683 136.868 93.7348 136.751 91.6026C136.635 89.4704 136.499 87.3395 136.348 85.2086C136.201 83.0776 136.031 80.9493 135.854 78.8209L135.721 77.2239L135.581 75.6283L135.288 72.4382C134.889 68.1904 134.452 63.94 133.969 59.6934Z" fill="#FFD2D2"/>
<path d="M136.926 59.6934C137.302 60.7207 137.648 61.7582 137.98 62.8007C138.312 63.8433 138.628 64.891 138.931 65.9425C139.007 66.2057 139.083 66.4676 139.156 66.732L139.375 67.5229C139.523 68.0492 139.658 68.5794 139.8 69.1084C139.943 69.6373 140.071 70.1687 140.207 70.6989C140.341 71.2291 140.465 71.7631 140.595 72.2946C141.104 74.4242 141.551 76.5679 141.961 78.7179C142.169 79.7922 142.347 80.873 142.532 81.9524L142.786 83.5748L142.849 83.9804L142.907 84.3872L143.021 85.2009L143.134 86.0147C143.17 86.2867 143.202 86.5576 143.235 86.8296L143.334 87.6446L143.383 88.0528L143.409 88.2562L143.43 88.4609L143.602 90.0947L143.644 90.5028L143.68 90.9122L143.75 91.731L143.818 92.5498C143.831 92.6859 143.84 92.8232 143.847 92.9592L143.874 93.3686L143.981 95.0075L144.055 96.649L144.073 97.0596C144.079 97.1957 144.084 97.333 144.087 97.4703L144.103 98.2916L144.12 99.113C144.125 99.3864 144.132 99.6597 144.13 99.9343L144.126 101.577L144.123 101.988L144.112 102.398L144.089 103.22C144.071 103.766 144.065 104.314 144.028 104.86L143.935 106.499L143.924 106.703L143.906 106.908L143.872 107.318L143.802 108.135L143.731 108.953C143.704 109.225 143.669 109.497 143.639 109.768L143.446 111.396L143.58 109.761C143.602 109.489 143.63 109.217 143.648 108.945L143.694 108.126L143.741 107.307L143.765 106.898L143.776 106.693L143.783 106.489L143.835 104.851C143.886 102.667 143.884 100.482 143.797 98.3006L143.769 97.4817C143.765 97.3457 143.757 97.2084 143.75 97.0723L143.727 96.6629L143.639 95.0279L143.519 93.3941L143.489 92.9859C143.479 92.8499 143.47 92.7139 143.456 92.5778L143.381 91.7628L143.306 90.9478L143.269 90.5397L143.226 90.1328L143.05 88.5041L143.029 88.3007L143.003 88.0973L142.952 87.6917L142.851 86.8792C142.816 86.6084 142.785 86.3376 142.748 86.0668L142.633 85.2556L142.521 84.4444L142.465 84.0388L142.403 83.6345L142.155 82.016L141.884 80.4L141.817 79.9957L141.743 79.5926L141.598 78.7865C141.211 76.6378 140.772 74.4967 140.299 72.3645C140.177 71.8318 140.06 71.2978 139.934 70.7676L139.745 69.9704C139.681 69.7047 139.62 69.4389 139.554 69.1732C139.422 68.643 139.297 68.1115 139.158 67.5826L138.955 66.788L138.746 65.9959C138.471 64.938 138.177 63.8853 137.876 62.8351C137.725 62.31 137.57 61.7849 137.413 61.2623C137.256 60.7359 137.095 60.2134 136.926 59.6934Z" fill="#FFD2D2"/>
<path opacity="0.25" d="M141.093 132.48C139.536 136.783 137.837 140.383 136.156 142.835H127.357C121.73 134.63 115.895 113.541 115.895 96.4095C115.895 74.6437 117.689 57 131.757 57C132.096 57 132.428 57.0102 132.754 57.0305C131.008 69.0532 124.678 120.159 141.093 132.48Z" fill="#FF5B5D"/>
<path opacity="0.5" d="M145.26 117.522C144.136 122.922 142.691 128.069 141.094 132.478C139.536 136.781 137.838 140.381 136.157 142.833H135.211C140.161 133.917 140.163 122.144 139.918 117.33C140.13 117.423 140.351 117.499 140.579 117.559C140.846 117.664 141.143 117.715 141.477 117.698C141.643 117.706 141.812 117.706 141.983 117.698L142.627 117.694C142.814 117.691 142.995 117.686 143.174 117.68C143.531 117.667 143.881 117.645 144.229 117.62C144.574 117.593 144.917 117.56 145.26 117.522Z" fill="#FF5B5D"/>
<path opacity="0.25" d="M129.887 142.835H127.357C124.295 138.373 121.174 130.096 118.961 120.716C118.716 119.676 118.482 118.622 118.261 117.558C116.807 110.584 115.895 103.188 115.895 96.4101C115.895 82.6989 116.607 70.6228 120.651 63.5625C118.188 78.54 114.206 116.017 129.887 142.835Z" fill="#FF5B5D"/>
<path opacity="0.25" d="M145.26 117.523C144.137 122.923 142.691 128.069 141.094 132.479C139.536 136.781 137.838 140.382 136.157 142.833H132.676C139.132 128.75 137.556 115.981 137.261 114.014C137.317 114.311 137.403 114.599 137.514 114.872C137.524 114.896 137.533 114.92 137.544 114.943C138.001 116.016 138.859 116.869 139.918 117.33C140.13 117.422 140.351 117.499 140.579 117.558C140.846 117.664 141.144 117.715 141.477 117.697C141.643 117.706 141.812 117.706 141.983 117.697L142.627 117.693C142.814 117.691 142.995 117.686 143.174 117.679C143.531 117.667 143.881 117.645 144.229 117.619C144.574 117.594 144.917 117.561 145.26 117.523Z" fill="#FF5B5D"/>
<path opacity="0.25" d="M145.274 117.463C145.269 117.483 145.265 117.504 145.262 117.523C144.918 117.561 144.575 117.593 144.229 117.621C143.881 117.646 143.531 117.668 143.174 117.68C142.995 117.687 142.814 117.692 142.627 117.694L141.983 117.698C141.812 117.708 141.643 117.708 141.477 117.698C141.482 117.698 141.488 117.698 141.493 117.698L142.138 117.694C142.325 117.692 142.505 117.687 142.683 117.68C143.04 117.668 143.39 117.646 143.738 117.621C144.256 117.58 144.766 117.529 145.274 117.463Z" fill="#FF5B5D"/>
<path d="M169.4 75.9125C169.364 78.3333 169.27 80.7504 169.133 83.1648L169.08 84.0701L169.019 84.9753L168.956 85.8806C168.934 86.1819 168.915 86.4845 168.89 86.7859C168.791 87.9912 168.695 89.1978 168.574 90.4018C168.516 91.0045 168.457 91.6072 168.394 92.2085L168.193 94.014L168.089 94.9167L167.977 95.8182L167.745 97.6223L167.715 97.855L167.673 98.1385C167.646 98.328 167.613 98.5174 167.583 98.7069C167.517 99.087 167.444 99.4659 167.359 99.8448C167.191 100.604 166.983 101.362 166.735 102.113C166.61 102.488 166.475 102.862 166.329 103.233C166.185 103.604 166.029 103.972 165.862 104.337C165.528 105.064 165.156 105.779 164.741 106.466C163.913 107.846 162.928 109.126 161.833 110.267C160.739 111.409 159.54 112.413 158.286 113.272C157.66 113.706 157.02 114.099 156.371 114.466C155.721 114.83 155.065 115.163 154.403 115.466C153.739 115.768 153.072 116.042 152.4 116.287C151.728 116.531 151.054 116.751 150.378 116.947C150.272 116.977 150.165 117.007 150.058 117.036C149.982 117.058 149.905 117.078 149.83 117.098C149.769 117.115 149.708 117.13 149.647 117.147C149.566 117.167 149.488 117.188 149.408 117.208C149.33 117.227 149.252 117.246 149.175 117.265C149.086 117.286 148.997 117.308 148.908 117.328C148.857 117.34 148.806 117.352 148.755 117.364C148.735 117.369 148.715 117.374 148.693 117.378C148.64 117.391 148.585 117.402 148.531 117.414C148.469 117.427 148.404 117.441 148.342 117.455C147.661 117.599 146.98 117.726 146.295 117.823C146.206 117.836 146.118 117.848 146.028 117.861C145.772 117.897 145.517 117.928 145.26 117.956C144.917 117.995 144.574 118.026 144.228 118.053C143.879 118.077 143.53 118.1 143.172 118.113C142.993 118.119 142.813 118.124 142.626 118.127L141.981 118.131C141.811 118.141 141.642 118.141 141.475 118.131C141.167 118.114 140.867 118.067 140.577 117.992C139.217 117.637 138.092 116.666 137.542 115.378C137.532 115.354 137.522 115.33 137.512 115.307C137.4 115.033 137.315 114.747 137.259 114.449C137.253 114.414 137.246 114.379 137.24 114.343C137.231 114.293 137.225 114.244 137.218 114.194C137.218 114.19 137.217 114.188 137.217 114.188C137.203 114.077 137.192 113.965 137.185 113.852C137.043 111.345 138.959 109.199 141.466 109.056L141.451 109.054C141.451 109.054 141.455 109.051 141.458 109.05C141.466 109.047 141.475 109.044 141.485 109.041L141.555 109.023L141.713 108.984L142.055 108.9C142.172 108.871 142.289 108.84 142.407 108.81C142.528 108.779 142.649 108.746 142.769 108.713C143.251 108.583 143.737 108.438 144.218 108.286C144.697 108.129 145.174 107.971 145.642 107.793C145.996 107.66 146.346 107.523 146.692 107.378C146.801 107.332 146.91 107.285 147.02 107.237C148.821 106.458 150.455 105.507 151.794 104.414C152.465 103.868 153.06 103.287 153.58 102.675C153.841 102.37 154.08 102.055 154.304 101.733C154.526 101.41 154.731 101.079 154.917 100.739C155.008 100.568 155.098 100.395 155.184 100.221C155.268 100.044 155.35 99.8689 155.424 99.6871C155.577 99.3273 155.714 98.9561 155.831 98.5734C155.892 98.3826 155.945 98.1881 155.999 97.9923C156.048 97.7952 156.098 97.5956 156.14 97.3922C156.184 97.19 156.222 96.9828 156.258 96.7755C156.273 96.67 156.294 96.567 156.306 96.4602L156.329 96.3013L156.357 96.0902L158.211 82.1299C158.529 79.7993 158.839 77.465 159.167 75.1331C159.334 73.9672 159.496 72.8001 159.672 71.6354C159.754 71.0544 159.846 70.4708 159.934 69.891L160.07 69.0226L160.138 68.5916L160.21 68.1746L160.226 68.0792C160.557 66.125 162.082 64.6718 163.927 64.3425C164.431 64.2522 164.957 64.2458 165.49 64.3361C165.901 64.406 166.29 64.5281 166.651 64.6959C168.176 65.4041 169.203 66.912 169.29 68.603L169.316 69.0786L169.336 69.5401C169.35 69.8478 169.358 70.1516 169.368 70.4568C169.386 71.0671 169.397 71.6736 169.405 72.2813C169.421 73.4904 169.416 74.7021 169.4 75.9125Z" fill="#DB3739"/>
<path d="M167.273 66.0215C167.496 68.2058 167.649 70.3978 167.759 72.5923C167.789 73.1403 167.81 73.6895 167.831 74.2388L167.863 75.0614L167.887 75.8853C167.902 76.4346 167.918 76.9838 167.924 77.5331L167.946 79.1809L167.941 80.8286L167.939 81.2406L167.932 81.6525L167.915 82.4764L167.897 83.3003C167.895 83.4376 167.891 83.575 167.885 83.7123L167.868 84.1242C167.847 84.6735 167.825 85.2227 167.799 85.7707C167.728 86.8667 167.671 87.9639 167.558 89.0574C167.465 90.1521 167.32 91.2417 167.178 92.3301L167.248 91.51L167.323 90.6899L167.36 90.2805C167.374 90.1445 167.379 90.0071 167.388 89.8698L167.438 89.0485C167.473 88.5018 167.516 87.9551 167.534 87.4058L167.609 85.7618L167.653 84.1166L167.665 83.7059C167.67 83.5686 167.672 83.4313 167.674 83.294L167.682 82.4713L167.694 81.6487L167.7 81.2368V80.8248V79.1796C167.69 78.0823 167.684 76.9864 167.657 75.8891L167.642 75.0665L167.619 74.2439C167.601 73.6959 167.591 73.1466 167.571 72.5986C167.55 72.0506 167.535 71.5026 167.511 70.9534C167.489 70.4054 167.469 69.8561 167.442 69.3081C167.398 68.2134 167.335 67.1187 167.273 66.0215Z" fill="#FFD2D2"/>
<path d="M161.814 67.0547C161.689 69.5772 161.525 72.0972 161.348 74.6159C161.263 75.8759 161.164 77.1346 161.072 78.3934L160.775 82.1683L160.456 85.9419L160.288 87.8274L160.204 88.7708L160.115 89.7142C159.881 92.2279 159.633 94.7415 159.346 97.2513C159.47 94.7288 159.633 92.2088 159.811 89.6901L159.877 88.7454L159.947 87.8007L160.087 85.9126L160.386 82.1377L160.705 78.3641C160.818 77.1067 160.925 75.8492 161.046 74.5918C161.28 72.0781 161.528 69.5645 161.814 67.0547Z" fill="#FFD2D2"/>
<path d="M165.116 64.2617C165.207 65.6692 165.261 67.078 165.305 68.488C165.325 69.1924 165.341 69.898 165.355 70.6024C165.369 71.308 165.374 72.0124 165.379 72.718C165.39 74.1281 165.376 75.5394 165.356 76.9494C165.331 78.3594 165.285 79.7707 165.229 81.1795L165.178 82.236L165.119 83.2926C165.102 83.6448 165.078 83.997 165.055 84.3492C165.03 84.7013 165.011 85.0535 164.982 85.4057L164.898 86.461L164.804 87.515C164.774 87.8672 164.737 88.2181 164.701 88.5691C164.663 88.92 164.629 89.2709 164.584 89.6218C164.427 91.0242 164.223 92.4228 163.98 93.8137C163.731 95.2034 163.442 96.5867 163.055 97.9434C163.359 96.5664 163.595 95.178 163.791 93.7832L163.866 93.2607C163.89 93.0865 163.91 92.911 163.933 92.7368L163.999 92.213C164.021 92.0388 164.044 91.8646 164.062 91.6892L164.179 90.6402L164.283 89.59C164.41 88.1889 164.532 86.7865 164.616 85.3803C164.706 83.9754 164.786 82.5704 164.842 81.1629C164.906 79.7567 164.953 78.3492 164.991 76.9405C165.032 75.533 165.055 74.1243 165.079 72.7155L165.103 70.6024C165.111 69.898 165.114 69.1936 165.117 68.4893C165.122 67.0818 165.121 65.6717 165.116 64.2617Z" fill="#FFD2D2"/>
<path d="M167.095 65.8438C167.161 66.538 167.217 67.2334 167.271 67.9302C167.321 68.6257 167.367 69.3224 167.409 70.0191C167.493 71.4126 167.56 72.8074 167.613 74.2022C167.711 76.993 167.746 79.7863 167.695 82.5784C167.648 85.3717 167.512 88.1638 167.259 90.947C167.132 92.3392 166.968 93.7276 166.765 95.111C166.559 96.4943 166.313 97.8725 166.003 99.2381C165.691 100.602 165.314 101.955 164.837 103.275C164.597 103.933 164.33 104.584 164.027 105.219C163.875 105.535 163.716 105.85 163.544 106.157C163.372 106.465 163.189 106.766 162.995 107.06C162.604 107.647 162.162 108.203 161.655 108.7L161.461 108.883L161.262 109.059L160.854 109.39L160.445 109.722C160.309 109.832 160.167 109.935 160.027 110.04C158.911 110.887 157.731 111.651 156.507 112.33C155.282 113.01 154.015 113.609 152.714 114.127C151.414 114.644 150.085 115.088 148.734 115.449L148.227 115.582L147.717 115.706L147.463 115.767L147.207 115.824L146.696 115.937C146.012 116.078 145.324 116.204 144.634 116.312C143.253 116.519 141.861 116.668 140.465 116.683C140.813 116.676 141.162 116.654 141.51 116.626C141.857 116.598 142.204 116.565 142.551 116.526C143.244 116.448 143.935 116.35 144.622 116.236C145.309 116.118 145.993 115.98 146.673 115.829L147.182 115.708L147.436 115.647L147.689 115.582L148.195 115.451L148.697 115.31C150.039 114.934 151.357 114.479 152.644 113.949C153.931 113.418 155.187 112.816 156.396 112.13C157.605 111.445 158.768 110.68 159.872 109.835C160.009 109.729 160.151 109.627 160.285 109.518L160.687 109.187L161.089 108.856L161.281 108.686L161.466 108.508C161.955 108.025 162.383 107.482 162.762 106.906C162.952 106.617 163.128 106.321 163.297 106.02C163.465 105.717 163.622 105.41 163.77 105.097C164.068 104.471 164.33 103.829 164.566 103.177C165.037 101.871 165.408 100.529 165.717 99.1732C166.336 96.46 166.715 93.6946 166.983 90.9216C167.251 88.1473 167.394 85.3616 167.468 82.5733C167.505 81.1798 167.519 79.7851 167.519 78.3903C167.52 76.9955 167.502 75.6008 167.47 74.206C167.41 71.4165 167.288 68.6282 167.095 65.8438Z" fill="#FF5B5D"/>
<path d="M161.816 66.666L161.678 68.4168L161.535 70.1663L161.247 73.6653L160.951 77.1643L160.648 80.6633L160.03 87.6587L159.395 94.6529L159.232 96.4011L159.151 97.2759C159.107 97.5734 159.054 97.8633 158.992 98.1532C158.737 99.3102 158.311 100.429 157.727 101.459C157.143 102.489 156.407 103.432 155.547 104.246C155.119 104.653 154.657 105.028 154.175 105.366C153.697 105.707 153.212 106.036 152.72 106.356C150.753 107.637 148.674 108.748 146.497 109.624C145.953 109.841 145.401 110.042 144.846 110.229C144.568 110.323 144.288 110.41 144.008 110.496L143.586 110.618C143.445 110.659 143.303 110.695 143.161 110.734C142.594 110.883 142.024 111.019 141.448 111.128C140.872 111.236 140.294 111.327 139.713 111.395C140.871 111.229 142.017 110.982 143.141 110.662C143.281 110.62 143.422 110.583 143.562 110.538L143.98 110.409C144.257 110.317 144.535 110.227 144.81 110.128C145.361 109.932 145.906 109.722 146.444 109.496C148.598 108.592 150.651 107.459 152.596 106.17C153.082 105.847 153.561 105.514 154.034 105.172C154.154 105.086 154.268 104.999 154.384 104.912C154.441 104.869 154.497 104.822 154.554 104.779C154.612 104.734 154.668 104.688 154.723 104.641C154.947 104.458 155.162 104.264 155.372 104.064C156.207 103.263 156.923 102.337 157.486 101.327C158.05 100.316 158.465 99.225 158.712 98.0947C158.773 97.8124 158.824 97.5263 158.865 97.2441L158.945 96.3706L159.104 94.6224L159.751 87.6308L160.416 80.6417L160.755 77.1477L161.1 73.6538L161.454 70.1612L161.631 68.4142L161.816 66.666Z" fill="#FF5B5D"/>
<path d="M164.975 64.2617C165.007 64.9356 165.031 65.6107 165.054 66.2859C165.074 66.961 165.092 67.6361 165.106 68.31C165.134 69.6602 165.153 71.0105 165.159 72.3608C165.168 75.0613 165.134 77.7631 165.037 80.4636C165.014 81.1388 164.985 81.8139 164.954 82.4878C164.921 83.1629 164.886 83.8368 164.844 84.5119C164.762 85.8609 164.662 87.2086 164.536 88.5538C164.413 89.9003 164.258 91.2429 164.072 92.583C163.978 93.253 163.876 93.9218 163.762 94.5881C163.649 95.2556 163.521 95.9205 163.38 96.5829C163.239 97.2454 163.08 97.9039 162.898 98.5587C162.718 99.2123 162.517 99.862 162.279 100.499C162.04 101.136 161.767 101.763 161.431 102.36C161.261 102.653 161.094 102.948 160.92 103.238L160.656 103.671L160.522 103.887L160.384 104.101L160.108 104.528C160.014 104.669 159.916 104.808 159.82 104.948C159.632 105.23 159.427 105.501 159.228 105.774C158.817 106.315 158.392 106.846 157.927 107.342L157.755 107.53C157.698 107.594 157.637 107.652 157.578 107.713L157.219 108.075C156.968 108.306 156.726 108.543 156.461 108.759L156.267 108.925C156.234 108.951 156.202 108.981 156.169 109.006L156.068 109.085L155.665 109.398C155.528 109.498 155.388 109.595 155.25 109.693C155.18 109.741 155.112 109.792 155.04 109.838L154.825 109.975L154.61 110.112L154.502 110.181L154.391 110.245L153.95 110.5C153.801 110.583 153.65 110.659 153.5 110.739C153.425 110.779 153.35 110.819 153.274 110.856L153.044 110.965C152.433 111.264 151.801 111.513 151.164 111.745L150.684 111.91L150.563 111.951L150.442 111.989L150.199 112.064L149.956 112.139C149.875 112.164 149.795 112.19 149.714 112.211L149.224 112.347C149.061 112.395 148.897 112.434 148.733 112.476L148.241 112.599L147.747 112.712C147.581 112.749 147.417 112.79 147.251 112.822C145.927 113.099 144.594 113.318 143.257 113.511C142.923 113.558 142.589 113.607 142.254 113.649C141.92 113.693 141.585 113.74 141.25 113.779L140.244 113.899L139.238 114.013C141.913 113.648 144.59 113.274 147.222 112.681C148.536 112.387 149.837 112.025 151.1 111.563C151.728 111.325 152.352 111.075 152.952 110.773L153.178 110.664C153.253 110.626 153.326 110.585 153.401 110.546C153.548 110.466 153.697 110.389 153.843 110.307L154.276 110.051L154.384 109.988L154.489 109.919L154.7 109.782L154.911 109.644C154.982 109.6 155.049 109.548 155.117 109.499C155.253 109.402 155.391 109.305 155.524 109.206L155.918 108.896L156.016 108.818C156.049 108.791 156.08 108.763 156.112 108.737L156.302 108.573C156.56 108.359 156.798 108.122 157.043 107.895L157.396 107.536C157.454 107.475 157.514 107.418 157.57 107.356L157.739 107.169C158.194 106.677 158.61 106.149 159.014 105.614C159.211 105.342 159.412 105.074 159.597 104.793C159.691 104.653 159.787 104.515 159.879 104.376L160.151 103.951L160.287 103.739L160.418 103.522L160.68 103.091C160.853 102.803 161.017 102.509 161.186 102.219C161.51 101.639 161.777 101.024 162.011 100.397C162.244 99.7692 162.442 99.1271 162.62 98.4799C162.798 97.8328 162.956 97.178 163.094 96.5206C163.235 95.8633 163.364 95.2022 163.477 94.5385C163.593 93.8748 163.694 93.2098 163.79 92.5423C163.885 91.8761 163.969 91.206 164.048 90.5372C164.124 89.8672 164.197 89.1971 164.261 88.5258C164.394 87.1845 164.5 85.8393 164.589 84.4928C164.678 83.1464 164.751 81.7999 164.811 80.4522C164.87 79.1045 164.912 77.7555 164.948 76.4065C164.982 75.0575 165.005 73.7085 165.018 72.3582C165.047 69.6615 165.032 66.9623 164.975 64.2617Z" fill="#FF5B5D"/>
<path opacity="0.25" d="M169.403 72.2709C169.396 71.6632 169.384 71.0567 169.367 70.4464C169.356 70.1413 169.347 69.8374 169.335 69.5297L169.314 69.0682L169.289 68.5927C169.201 66.9017 168.175 65.3937 166.649 64.6855C168.977 70.1082 166.999 100.577 160.205 107.641C157.203 110.761 151.977 112.701 146.866 113.886C143.911 114.572 141.367 111.708 142.388 108.851C142.394 108.834 142.401 108.817 142.407 108.799C142.289 108.83 142.17 108.86 142.055 108.89L141.713 108.975L141.555 109.014L141.485 109.032C141.475 109.035 141.466 109.038 141.458 109.041C141.456 109.042 141.451 109.045 141.451 109.045L141.466 109.047C138.96 109.19 137.043 111.337 137.185 113.843C137.192 113.956 137.202 114.068 137.217 114.179C137.217 114.179 137.217 114.181 137.218 114.185C137.225 114.235 137.232 114.284 137.24 114.334C137.245 114.37 137.251 114.405 137.259 114.439C137.315 114.738 137.4 115.024 137.512 115.298C137.522 115.322 137.531 115.346 137.542 115.37C137.563 115.418 137.584 115.467 137.607 115.514C137.614 115.527 137.619 115.538 137.625 115.551C137.643 115.588 137.661 115.624 137.68 115.661C137.686 115.674 137.692 115.685 137.699 115.698C137.748 115.792 137.801 115.884 137.856 115.973C137.863 115.983 137.869 115.994 137.877 116.005C137.898 116.04 137.921 116.075 137.945 116.11C137.952 116.12 137.959 116.13 137.966 116.141C138.026 116.228 138.088 116.314 138.153 116.396C138.159 116.405 138.167 116.414 138.174 116.423C138.201 116.456 138.228 116.489 138.254 116.521C138.263 116.531 138.271 116.54 138.28 116.55C138.313 116.589 138.347 116.628 138.382 116.664L138.383 116.666C138.418 116.705 138.455 116.742 138.492 116.78C138.499 116.787 138.505 116.793 138.513 116.8C138.542 116.828 138.57 116.858 138.599 116.884C138.612 116.896 138.624 116.909 138.637 116.92C138.671 116.952 138.706 116.984 138.741 117.014C138.745 117.018 138.749 117.02 138.753 117.024C138.792 117.059 138.832 117.09 138.872 117.123C138.884 117.132 138.894 117.141 138.905 117.15C138.936 117.174 138.965 117.197 138.996 117.22C139.008 117.23 139.021 117.239 139.034 117.249C139.068 117.275 139.102 117.299 139.138 117.324C139.146 117.329 139.153 117.334 139.16 117.34C139.202 117.368 139.244 117.396 139.287 117.424C139.3 117.432 139.314 117.44 139.328 117.449C139.358 117.468 139.39 117.487 139.42 117.506C139.436 117.515 139.451 117.524 139.466 117.533C139.5 117.553 139.535 117.572 139.57 117.591C139.581 117.598 139.591 117.603 139.602 117.608C139.647 117.631 139.691 117.654 139.736 117.677C139.751 117.684 139.765 117.691 139.78 117.697C139.813 117.712 139.845 117.727 139.878 117.743C139.895 117.75 139.911 117.757 139.928 117.764C139.965 117.78 140 117.795 140.037 117.81C140.048 117.815 140.06 117.819 140.071 117.824C140.118 117.843 140.167 117.86 140.215 117.877C140.229 117.882 140.243 117.888 140.258 117.891C140.294 117.904 140.331 117.916 140.368 117.927C140.384 117.932 140.399 117.937 140.416 117.942C140.457 117.955 140.497 117.966 140.538 117.977C140.548 117.979 140.557 117.982 140.567 117.985C140.571 117.987 140.574 117.987 140.577 117.988C140.623 117.999 140.669 118.011 140.715 118.021C140.734 118.025 140.753 118.03 140.772 118.034C140.811 118.043 140.849 118.05 140.889 118.057C140.898 118.058 140.907 118.059 140.916 118.062C140.961 118.071 141.007 118.077 141.053 118.085C141.071 118.087 141.087 118.09 141.105 118.092C141.15 118.099 141.193 118.104 141.237 118.109C141.258 118.111 141.278 118.113 141.298 118.114C141.33 118.116 141.361 118.119 141.392 118.122C141.418 118.123 141.442 118.125 141.467 118.127C141.47 118.127 141.474 118.127 141.476 118.127C141.52 118.129 141.561 118.13 141.605 118.132C141.619 118.132 141.634 118.132 141.648 118.132C141.69 118.133 141.732 118.133 141.775 118.132C141.789 118.132 141.803 118.132 141.818 118.13C141.873 118.129 141.928 118.128 141.982 118.124L142.627 118.12C142.814 118.118 142.994 118.113 143.174 118.106C143.531 118.094 143.881 118.072 144.229 118.047C144.422 118.031 144.614 118.015 144.806 117.996C144.974 117.979 145.142 117.963 145.31 117.944C145.45 117.928 145.589 117.91 145.728 117.894C145.772 117.888 145.817 117.882 145.861 117.876C145.917 117.868 145.973 117.862 146.029 117.855L146.028 117.853C146.117 117.841 146.206 117.829 146.295 117.816C146.98 117.718 147.661 117.593 148.342 117.448C148.406 117.434 148.469 117.421 148.531 117.406C148.585 117.394 148.64 117.382 148.693 117.37C148.715 117.366 148.735 117.361 148.755 117.356C148.806 117.345 148.857 117.333 148.908 117.321C148.997 117.3 149.086 117.279 149.175 117.257C149.252 117.238 149.33 117.219 149.408 117.2C149.488 117.179 149.566 117.159 149.647 117.137C149.708 117.122 149.769 117.106 149.83 117.089C149.906 117.069 149.983 117.048 150.058 117.027C150.164 116.998 150.271 116.968 150.378 116.938C151.054 116.742 151.728 116.523 152.4 116.278C153.072 116.033 153.741 115.759 154.403 115.457C155.065 115.154 155.723 114.821 156.372 114.457C157.02 114.091 157.662 113.697 158.287 113.263C159.541 112.404 160.74 111.399 161.835 110.258C162.929 109.117 163.916 107.837 164.742 106.457C165.157 105.768 165.529 105.055 165.864 104.328C166.03 103.964 166.187 103.595 166.33 103.224C166.477 102.854 166.611 102.48 166.736 102.104C166.984 101.353 167.192 100.595 167.361 99.8357C167.445 99.4568 167.518 99.0767 167.585 98.6978C167.616 98.5083 167.65 98.3189 167.677 98.1294L167.719 97.8459L167.749 97.6132L167.981 95.8103L168.093 94.9089L168.197 94.0062L168.398 92.2007C168.461 91.5993 168.52 90.9967 168.578 90.394C168.7 89.19 168.794 87.9834 168.894 86.778C168.919 86.4767 168.938 86.1754 168.96 85.8728L169.023 84.9675L169.084 84.0623L169.136 83.157C169.274 80.7425 169.368 78.3255 169.403 75.9047C169.414 74.6969 169.419 73.4852 169.403 72.2709Z" fill="#FF5B5D"/>
<path opacity="0.25" d="M163.929 64.3398C163.411 67.6647 162.478 79.1216 161.815 88.6472C161.108 98.7767 155.469 105.236 146.693 107.375C146.803 107.33 146.912 107.283 147.021 107.234C148.823 106.455 150.457 105.504 151.796 104.412C152.467 103.865 153.062 103.284 153.582 102.672C153.843 102.367 154.082 102.052 154.305 101.73C154.528 101.407 154.733 101.077 154.918 100.736C155.01 100.566 155.1 100.393 155.185 100.219C155.269 100.042 155.352 99.8663 155.426 99.6845C155.578 99.3247 155.715 98.9534 155.832 98.5707C155.893 98.38 155.947 98.1855 156 97.9897C156.05 97.7926 156.099 97.593 156.141 97.3896C156.186 97.1874 156.224 96.9802 156.26 96.7729C156.275 96.6674 156.295 96.5644 156.308 96.4576L156.331 96.2987L156.359 96.0876L158.213 82.1272C158.53 79.7967 158.841 77.4623 159.169 75.1305C159.335 73.9646 159.498 72.7974 159.673 71.6328C159.756 71.0518 159.848 70.4682 159.935 69.8884L160.071 69.02L160.14 68.589L160.211 68.172L160.228 68.0766C160.557 66.1224 162.083 64.6691 163.929 64.3398Z" fill="#FFD2D2"/>
<path d="M160.578 78.7939L159.344 77.4372L160.235 77.9178L160.446 76.832L160.578 78.7939Z" fill="#FFD2D2"/>
<path d="M164.87 82.5084L164.244 79.6973L165.083 81.0475L166.219 79.7303L164.87 82.5084Z" fill="#FFD2D2"/>
<path d="M161.381 71.5978L160.836 69.1465L161.568 70.3238L162.557 69.1757L161.381 71.5978Z" fill="#FFD2D2"/>
<path d="M165.235 69.4896L164.055 66.8882L165.144 68.0275L165.977 66.5195L165.235 69.4896Z" fill="#FFD2D2"/>
<path d="M167.719 78.2598L167.221 76.5662L167.789 77.357L168.429 76.5039L167.719 78.2598Z" fill="#FFD2D2"/>
<path d="M167.35 89.9296L166.852 87.8457L167.492 88.84L168.321 87.8482L167.35 89.9296Z" fill="#FFD2D2"/>
<path d="M159.568 90.9284L158.375 88.3067L159.475 89.4535L160.314 87.9316L159.568 90.9284Z" fill="#FFD2D2"/>
<path d="M163.061 97.3077L162.617 94.4609L163.369 95.8621L164.585 94.6224L163.061 97.3077Z" fill="#FFD2D2"/>
<path d="M157.84 107.205L158.071 104.334L158.474 105.872L159.948 104.949L157.84 107.205Z" fill="#FFD2D2"/>
<path d="M146.918 112.781L148.859 110.652L148.236 112.116L149.967 112.287L146.918 112.781Z" fill="#FFD2D2"/>
<path d="M146.289 109.616L147.33 106.93L147.278 108.519L148.954 108.055L146.289 109.616Z" fill="#FFD2D2"/>
<path d="M164.549 103.148L164.105 100.303L164.857 101.704L166.075 100.463L164.549 103.148Z" fill="#FFD2D2"/>
<path d="M157.834 100.906L157.391 98.0605L158.141 99.4617L159.359 98.2207L157.834 100.906Z" fill="#FFD2D2"/>
<path d="M128.408 79.1122L126.689 75.1174L128.316 76.8834L129.629 74.6113L128.408 79.1122Z" fill="#FFD2D2"/>
<path d="M127.4 92.9252L125.902 88.8426L127.428 90.6951L128.865 88.498L127.4 92.9252Z" fill="#FFD2D2"/>
<path d="M136.139 84.4481L134.791 80.3133L136.248 82.2205L137.764 80.0781L136.139 84.4481Z" fill="#FFD2D2"/>
<path d="M135.038 69.2672L133.488 65.2037L135.038 67.0371L136.446 64.8223L135.038 69.2672Z" fill="#FFD2D2"/>
<path d="M137.044 106.93L136.164 104.096L137.141 105.412L138.195 103.965L137.044 106.93Z" fill="#FFD2D2"/>
<path d="M127.999 114.015L126.867 110.366L128.123 112.06L129.481 110.197L127.999 114.015Z" fill="#FFD2D2"/>
<path d="M129.217 129.467L127.742 125.942L129.153 127.509L130.328 125.525L129.217 129.467Z" fill="#FFD2D2"/>
<path d="M122.508 125.121L120.996 122.401L122.28 123.541L123.052 121.83L122.508 125.121Z" fill="#FFD2D2"/>
<path d="M119.169 104.525L118.238 101.525L119.271 102.918L120.387 101.387L119.169 104.525Z" fill="#FFD2D2"/>
<path d="M141.488 77.3819L140.41 74.0736L141.576 75.6006L142.788 73.8867L141.488 77.3819Z" fill="#FFD2D2"/>
<path d="M143.454 96.7879L142.09 92.601L143.565 94.5336L145.099 92.3633L143.454 96.7879Z" fill="#FFD2D2"/>
<path d="M119.917 84.2761L119.186 80.875L120.187 82.5126L121.569 80.9335L119.917 84.2761Z" fill="#FFD2D2"/>
<path d="M122.339 72.2774L121.75 68.8496L122.682 70.5266L124.129 69.006L122.339 72.2774Z" fill="#FFD2D2"/>
<path d="M124.899 64.4376L124.311 61.0098L125.244 62.6881L126.689 61.1674L124.899 64.4376Z" fill="#FFD2D2"/>
<path opacity="0.25" d="M144.261 66.518C137.98 56.0706 126.033 58.2753 125.906 58.2994C127.572 57.4514 129.507 57 131.757 57C132.097 57 132.429 57.0102 132.754 57.0305C138.507 57.3903 142.071 60.9033 144.261 66.518Z" fill="#FFD2D2"/>
<path opacity="0.25" d="M118.963 120.715C105.048 114.764 111.422 104.281 111.422 104.281L112.106 109.434L112.127 109.597L112.145 109.72C112.155 109.803 112.172 109.883 112.183 109.965C112.211 110.125 112.241 110.285 112.275 110.441C112.307 110.599 112.345 110.753 112.384 110.905C112.425 111.057 112.466 111.208 112.514 111.356C112.606 111.652 112.711 111.938 112.829 112.218C112.887 112.357 112.95 112.495 113.015 112.631C113.081 112.766 113.151 112.899 113.221 113.031C113.366 113.294 113.524 113.55 113.696 113.801C113.869 114.05 114.055 114.294 114.257 114.53C114.659 115.005 115.122 115.453 115.639 115.877C116.403 116.5 117.291 117.063 118.262 117.558C118.483 118.621 118.717 119.675 118.963 120.715Z" fill="#FF5B5D"/>
<path d="M117.971 136.684L128.965 137.51L131.904 141.356L131.225 143.425H117.971L118.617 141.407L117.971 136.684Z" fill="#221F20"/>
<path d="M117.971 136.683L123.437 134.643L130.372 135.948L128.965 137.51L117.971 136.683Z" fill="#817E7F"/>
<path d="M130.372 135.949L133.864 138.802L135.925 139.542L134.899 143.425H131.225L131.904 141.357L128.965 137.511L130.372 135.949Z" fill="#4D4D4D"/>
<path d="M131.904 141.355L135.924 139.541L133.863 138.801L131.303 140.567L131.904 141.355Z" fill="#817E7F"/>
<path d="M121.838 136.975L123.804 136.496L122.742 137.043L121.838 136.975Z" fill="#221F20"/>
<path d="M132.395 139.814L133.127 139.875L132.681 139.617L132.395 139.814Z" fill="#4D4D4D"/>
<path d="M128 137.13L143.261 139.964L160.281 135.559L149.43 131.373L128 137.13Z" fill="#817E7F"/>
<path d="M143.261 139.964L142.761 144.999L132.688 144.471L130.903 141.674L132.029 141.065L130.456 140.976L128 137.129L143.261 139.964Z" fill="#4D4D4D"/>
<path d="M142.76 144.999L157.791 144.366L161.06 139.567L158.106 138.512L160.006 137.458L160.28 135.559L143.261 139.964L142.76 144.999Z" fill="#221F20"/>
<path d="M148.143 138.701L146.258 138.059L149.714 138.294L148.143 138.701Z" fill="#221F20"/>
<path d="M134.395 138.318L135.483 139.678L135.632 138.547L134.395 138.318Z" fill="#817E7F"/>
<path opacity="0.25" d="M149.431 131.373L153.925 136.013L143.262 139.964L160.281 135.559L149.431 131.373Z" fill="#221F20"/>
<path d="M143.064 141.928L141.148 142.314L143.015 142.44L143.064 141.928Z" fill="#221F20"/>
<path d="M130.658 140.988L131.069 141.585L132.029 141.066L130.658 140.988Z" fill="#221F20"/>
</svg>
