<svg width="288" height="157" viewBox="0 0 288 157" fill="none" xmlns="http://www.w3.org/2000/svg">
<path d="M38.763 63.6305L2.4478 88.0018C1.09592 88.9091 0.732163 90.7427 1.63533 92.0973L38.9551 148.072C39.8583 149.426 41.6864 149.789 43.0382 148.882L79.3534 124.511C80.7053 123.603 81.069 121.77 80.1659 120.415L42.8461 64.4406C41.9429 63.0859 40.1148 62.7233 38.763 63.6305Z" fill="#F5F5F5"/>
<path d="M60.5069 119.986L60.039 122.89L39.5527 119.929L40.0203 117.025L60.5069 119.986Z" fill="#E0E0E0"/>
<path d="M50.1893 109.627L53.129 110.052L49.8698 130.288L46.9297 129.864L50.1893 109.627Z" fill="#E0E0E0"/>
<path d="M31.3194 83.9068C31.3488 83.951 27.2187 86.774 22.0962 90.2116C16.9719 93.6503 12.7952 96.4014 12.7658 96.3572C12.7364 96.3133 16.8654 93.4907 21.9901 90.052C27.1126 86.6144 31.29 83.8629 31.3194 83.9068Z" fill="#E0E0E0"/>
<path d="M46.4742 80.0882C46.5036 80.1324 39.6357 84.7927 31.1368 90.4957C22.6346 96.201 15.7209 100.789 15.6915 100.745C15.6621 100.701 22.5285 96.0414 31.0303 90.3362C39.5292 84.6331 46.4448 80.0444 46.4742 80.0882Z" fill="#E0E0E0"/>
<path d="M49.5133 84.6448C49.5426 84.6891 42.6748 89.3493 34.1759 95.0524C25.6737 100.758 18.7599 105.346 18.7306 105.301C18.7012 105.257 25.5675 100.598 34.0694 94.8928C42.5687 89.1897 49.4839 84.601 49.5133 84.6448Z" fill="#E0E0E0"/>
<path d="M52.5523 89.2034C52.5817 89.2477 45.7139 93.9079 37.215 99.611C28.7127 105.316 21.799 109.904 21.7696 109.86C21.7402 109.816 28.6066 105.157 37.1084 99.4514C45.6077 93.748 52.5229 89.1592 52.5523 89.2034Z" fill="#E0E0E0"/>
<path d="M55.5914 93.7581C55.6208 93.8023 48.7529 98.4622 40.254 104.166C31.7518 109.871 24.8381 114.459 24.8087 114.415C24.7793 114.371 31.6457 109.711 40.1475 104.006C48.6464 98.303 55.562 93.7143 55.5914 93.7581Z" fill="#E0E0E0"/>
<path d="M278.194 92.8141L252.143 68.2421C250.959 67.1257 249.097 67.1844 247.983 68.3732L210.02 108.885C208.906 110.074 208.963 111.943 210.146 113.059L236.198 137.631C237.381 138.747 239.244 138.689 240.358 137.5L278.32 96.988C279.434 95.7992 279.378 93.9304 278.194 92.8141Z" fill="#F5F5F5"/>
<path d="M236.562 120.375C236.62 121.061 236.103 121.662 235.416 121.708C234.747 121.753 234.165 121.252 234.109 120.583L232.863 105.659C232.805 104.973 233.322 104.372 234.009 104.326C234.679 104.281 235.26 104.782 235.316 105.451L236.562 120.375Z" fill="#E0E0E0"/>
<path d="M241.944 111.279C242.625 111.234 243.215 111.742 243.272 112.422C243.33 113.119 242.806 113.73 242.108 113.776L227.482 114.753C226.802 114.799 226.211 114.29 226.154 113.611C226.096 112.913 226.621 112.303 227.319 112.256L241.944 111.279Z" fill="#E0E0E0"/>
<path d="M260.587 90.8526C260.551 90.8912 257.464 88.0383 253.693 84.4811C249.921 80.9227 246.894 78.0081 246.93 77.9695C246.966 77.9308 250.052 80.7831 253.825 84.3415C257.595 87.8984 260.623 90.814 260.587 90.8526Z" fill="#E0E0E0"/>
<path d="M266.558 102.572C266.522 102.611 261.42 97.8569 255.163 91.9555C248.905 86.0519 243.862 81.2366 243.899 81.198C243.935 81.1593 249.036 85.9123 255.294 91.8159C261.55 97.717 266.594 102.534 266.558 102.572Z" fill="#E0E0E0"/>
<path d="M263.417 105.928C263.381 105.966 258.279 101.212 252.023 95.3109C245.764 89.4073 240.722 84.5921 240.758 84.5534C240.795 84.5148 245.895 89.2677 252.154 95.1713C258.41 101.072 263.454 105.889 263.417 105.928Z" fill="#E0E0E0"/>
<path d="M260.275 109.281C260.238 109.32 255.136 104.566 248.88 98.6645C242.622 92.7609 237.579 87.9456 237.616 87.9069C237.652 87.8684 242.753 92.6213 249.011 98.5249C255.267 104.426 260.311 109.243 260.275 109.281Z" fill="#E0E0E0"/>
<path d="M257.132 112.637C257.096 112.675 251.994 107.921 245.738 102.02C239.479 96.1163 234.437 91.3011 234.473 91.2624C234.509 91.2238 239.61 95.9767 245.869 101.88C252.125 107.781 257.168 112.598 257.132 112.637Z" fill="#E0E0E0"/>
<path d="M96.8106 10.477L71.8206 23.4375C70.3771 24.1861 69.8123 25.9677 70.5589 27.4168L90.8553 66.8085C91.602 68.2576 93.3773 68.8255 94.8208 68.0769L119.811 55.1163C121.254 54.3677 121.819 52.5862 121.072 51.1371L100.776 11.7453C100.029 10.2963 98.254 9.7284 96.8106 10.477Z" fill="#F5F5F5"/>
<path d="M107.142 49.8909C107.687 50.0336 108.009 50.5964 107.858 51.1398C107.71 51.6697 107.166 51.9827 106.635 51.8435L94.8439 48.7535C94.2992 48.6107 93.9766 48.0478 94.1281 47.5044C94.2758 46.9745 94.8197 46.6614 95.3508 46.8006L107.142 49.8909Z" fill="#E0E0E0"/>
<path d="M101.619 43.258C101.769 42.7217 102.319 42.4048 102.857 42.5456C103.408 42.69 103.735 43.2598 103.581 43.8099L100.355 55.3873C100.206 55.9236 99.6551 56.2405 99.1175 56.0996C98.5663 55.9551 98.2398 55.3855 98.3931 54.8354L101.619 43.258Z" fill="#E0E0E0"/>
<path d="M90.9996 23.2985C91.0225 23.3431 87.9953 24.9584 84.2392 26.9065C80.4818 28.8551 77.4182 30.3985 77.3953 30.3539C77.3727 30.3095 80.399 28.6943 84.1563 26.7455C87.9126 24.7976 90.9769 23.2541 90.9996 23.2985Z" fill="#E0E0E0"/>
<path d="M101.626 21.8667C101.649 21.9113 96.6142 24.5679 90.3826 27.7998C84.1485 31.0328 79.0781 33.6171 79.0552 33.5725C79.0325 33.5281 84.0658 30.872 90.2999 27.639C96.5315 24.407 101.603 21.8221 101.626 21.8667Z" fill="#E0E0E0"/>
<path d="M103.349 25.2087C103.372 25.2533 98.3371 27.9098 92.1053 31.1416C85.8712 34.3746 80.8007 36.9589 80.7778 36.9143C80.7552 36.8699 85.7885 34.2138 92.0226 30.9808C98.2541 27.7488 103.326 25.1644 103.349 25.2087Z" fill="#E0E0E0"/>
<path d="M105.066 28.5485C105.089 28.5931 100.054 31.2497 93.8221 34.4814C87.5882 37.7146 82.5175 40.2987 82.4946 40.2541C82.4716 40.2098 87.5052 37.5537 93.7394 34.3206C99.9712 31.0889 105.043 28.5041 105.066 28.5485Z" fill="#E0E0E0"/>
<path d="M106.79 31.8903C106.813 31.9349 101.779 34.5912 95.5467 37.8232C89.3128 41.0564 84.2421 43.6405 84.2192 43.5959C84.1966 43.5515 89.2299 40.8954 95.464 37.6624C101.696 34.4306 106.767 31.8462 106.79 31.8903Z" fill="#E0E0E0"/>
<g clip-path="url(#clip0_2027_5004)">
<path d="M137.396 54.3168C142.318 56.0026 145.617 55.0459 150.412 53.4462C150.924 53.2763 151.436 53.1066 151.948 52.9377C152.263 52.8337 152.577 52.7292 152.892 52.6239C155.472 51.7698 158.157 51.7122 160.643 52.9384C163.303 54.4886 164.703 56.3771 165.644 59.2819C165.838 60.0281 165.99 60.7791 166.135 61.536C166.178 61.7483 166.22 61.9607 166.264 62.1795C166.402 62.8725 166.537 63.566 166.672 64.2596C166.768 64.7437 166.864 65.2279 166.96 65.712C167.212 66.9794 167.461 68.2473 167.709 69.5154C167.964 70.8119 168.221 72.108 168.477 73.4041C168.979 75.9424 169.479 78.4812 169.977 81.0202C170.106 81.0214 170.236 81.0226 170.369 81.0239C171.714 81.0372 173.06 81.0546 174.406 81.0746C174.908 81.0814 175.41 81.0872 175.912 81.0919C176.634 81.0989 177.356 81.1097 178.078 81.1213C178.414 81.1233 178.414 81.1233 178.757 81.1253C179.898 81.1475 180.763 81.1866 181.74 81.8483C182.704 82.9201 182.843 83.5861 182.83 85.0023C182.728 85.9988 182.248 86.5511 181.52 87.1923C180.838 87.6117 180.284 87.6707 179.503 87.6687C179.199 87.6687 179.199 87.6687 178.89 87.6687C178.672 87.6676 178.454 87.6665 178.229 87.6654C177.894 87.665 177.894 87.665 177.552 87.6645C176.837 87.6634 176.122 87.6608 175.407 87.6582C174.923 87.6571 174.438 87.6562 173.954 87.6553C172.766 87.653 171.578 87.6496 170.39 87.6452C170.392 87.8721 170.394 88.0989 170.396 88.3326C170.412 90.4883 170.425 92.6441 170.433 94.7999C170.437 95.9078 170.443 97.0156 170.452 98.1234C170.461 99.196 170.466 100.269 170.468 101.341C170.47 101.747 170.473 102.153 170.477 102.558C170.54 108.437 168.955 113.424 166.057 118.493C166.3 118.49 166.544 118.486 166.795 118.483C167.701 118.472 168.608 118.465 169.515 118.459C169.907 118.456 170.299 118.451 170.691 118.446C171.255 118.438 171.82 118.435 172.384 118.432C172.558 118.429 172.733 118.426 172.912 118.423C174.262 118.422 175.095 118.728 176.142 119.619C176.711 120.392 176.736 121.115 176.719 122.057C176.41 123.811 175.444 125.37 174.62 126.929C174.431 127.297 174.242 127.665 174.054 128.032C173.594 128.927 173.129 129.818 172.66 130.708C172.786 130.708 172.912 130.709 173.041 130.71C174.364 130.719 175.686 130.733 177.009 130.751C177.501 130.756 177.993 130.761 178.485 130.764C182.333 130.788 185.435 130.861 188.388 133.62C190.227 135.544 190.923 138.126 191.752 140.6C191.857 140.911 191.962 141.223 192.067 141.535C192.285 142.184 192.502 142.833 192.718 143.483C192.994 144.31 193.275 145.136 193.556 145.961C193.774 146.603 193.988 147.245 194.202 147.888C194.304 148.193 194.407 148.497 194.512 148.801C195.86 152.743 195.86 152.743 195.049 154.607C194.072 155.612 192.979 156.056 191.587 156.076C191.43 156.074 191.273 156.072 191.112 156.07C190.94 156.071 190.769 156.072 190.592 156.073C190.019 156.076 189.446 156.074 188.872 156.071C188.457 156.072 188.041 156.073 187.625 156.075C186.484 156.078 185.343 156.076 184.202 156.074C182.971 156.072 181.74 156.075 180.508 156.077C178.236 156.081 175.964 156.08 173.692 156.078C171.593 156.076 169.494 156.075 167.395 156.076C167.256 156.076 167.117 156.076 166.973 156.077C166.408 156.077 165.843 156.077 165.278 156.077C159.975 156.08 154.673 156.078 149.371 156.073C144.66 156.069 139.95 156.07 135.24 156.074C129.947 156.078 124.654 156.08 119.362 156.077C118.797 156.077 118.233 156.077 117.669 156.076C117.53 156.076 117.391 156.076 117.248 156.076C115.15 156.075 113.053 156.076 110.955 156.078C108.57 156.081 106.185 156.08 103.799 156.076C102.582 156.074 101.365 156.073 100.148 156.075C99.0338 156.078 97.9199 156.077 96.8059 156.072C96.4026 156.071 95.9994 156.072 95.5962 156.074C95.0482 156.076 94.5006 156.074 93.9527 156.07C93.7959 156.072 93.6392 156.074 93.4777 156.076C92.0853 156.056 90.992 155.612 90.0148 154.607C89.0891 152.479 90.049 150.262 90.7523 148.2C90.8611 147.874 90.9697 147.547 91.078 147.221C91.3047 146.54 91.5337 145.859 91.7645 145.18C92.0586 144.313 92.348 143.446 92.6358 142.577C92.8594 141.904 93.0848 141.231 93.3109 140.559C93.4182 140.239 93.5251 139.919 93.6315 139.6C94.7092 136.368 95.973 133.62 99.0025 131.795C100.778 131.037 102.489 130.82 104.404 130.809C104.75 130.803 104.75 130.803 105.102 130.798C105.829 130.786 106.557 130.779 107.284 130.772C107.781 130.766 108.277 130.758 108.774 130.751C109.984 130.733 111.194 130.719 112.404 130.708C112.286 130.482 112.167 130.257 112.044 130.025C111.601 129.18 111.164 128.332 110.729 127.483C110.541 127.117 110.351 126.753 110.159 126.389C107.993 122.282 107.993 122.282 108.484 120.356C109.052 119.355 109.656 118.843 110.753 118.493C111.388 118.425 112.022 118.416 112.66 118.407C112.842 118.403 113.023 118.399 113.211 118.395C113.789 118.383 114.367 118.373 114.945 118.363C115.338 118.356 115.731 118.347 116.124 118.339C117.085 118.319 118.046 118.302 119.008 118.286C118.927 118.154 118.846 118.021 118.763 117.885C115.738 112.889 114.566 107.853 114.614 102.04C114.615 101.623 114.616 101.205 114.616 100.787C114.619 99.6996 114.625 98.6119 114.632 97.5242C114.638 96.4096 114.641 95.295 114.644 94.1805C114.651 92.002 114.661 89.8236 114.674 87.6452C114.55 87.6466 114.426 87.648 114.299 87.6494C113.006 87.6632 111.714 87.6725 110.422 87.6793C109.94 87.6825 109.458 87.6867 108.976 87.6921C108.283 87.6996 107.589 87.7031 106.896 87.7059C106.681 87.7091 106.466 87.7123 106.245 87.7156C105.116 87.7158 104.292 87.6778 103.325 87.0241C102.361 85.9524 102.221 85.2864 102.234 83.8701C102.336 82.8737 102.817 82.3213 103.544 81.6801C104.233 81.2564 104.81 81.1984 105.599 81.1847C105.81 81.1806 106.02 81.1765 106.237 81.1722C106.464 81.1688 106.691 81.1653 106.925 81.1617C107.158 81.1574 107.391 81.1531 107.631 81.1487C108.375 81.1352 109.119 81.123 109.864 81.1108C110.368 81.1019 110.872 81.0928 111.376 81.0837C112.613 81.0615 113.85 81.0405 115.087 81.0202C115.12 80.8492 115.12 80.8492 115.154 80.6747C115.698 77.8897 116.246 75.1055 116.798 72.3221C117.065 70.976 117.331 69.6296 117.594 68.2826C117.847 66.9812 118.105 65.6806 118.364 64.3804C118.463 63.8857 118.559 63.3908 118.655 62.8957C119.352 59.2921 119.995 56.067 123.07 53.7568C127.75 50.601 132.592 52.6663 137.396 54.3168Z" fill="#DB3739"/>
<path d="M149.164 118.463C149.493 118.461 149.493 118.461 149.829 118.459C150.07 118.459 150.311 118.459 150.559 118.458C150.813 118.457 151.067 118.456 151.328 118.455C152.024 118.453 152.721 118.451 153.417 118.45C153.852 118.45 154.287 118.449 154.722 118.448C156.084 118.445 157.446 118.443 158.809 118.442C160.38 118.441 161.951 118.438 163.523 118.432C164.738 118.427 165.953 118.425 167.168 118.425C167.894 118.425 168.619 118.423 169.345 118.42C170.154 118.416 170.964 118.417 171.774 118.418C172.013 118.416 172.253 118.414 172.5 118.412C174.03 118.42 174.948 118.602 176.141 119.617C176.71 120.391 176.735 121.114 176.718 122.055C176.409 123.809 175.443 125.369 174.62 126.928C174.43 127.296 174.241 127.663 174.053 128.031C173.593 128.926 173.128 129.817 172.659 130.707C172.785 130.707 172.911 130.708 173.041 130.709C174.363 130.718 175.686 130.732 177.008 130.749C177.5 130.755 177.992 130.76 178.485 130.763C182.332 130.787 185.434 130.859 188.387 133.619C190.226 135.543 190.922 138.125 191.751 140.599C191.856 140.91 191.961 141.222 192.066 141.533C192.284 142.182 192.501 142.832 192.718 143.482C192.994 144.309 193.274 145.135 193.555 145.96C193.773 146.601 193.988 147.244 194.201 147.887C194.303 148.192 194.407 148.496 194.511 148.8C195.86 152.741 195.86 152.741 195.049 154.606C194.155 155.525 193.179 155.999 191.892 156.066C191.519 156.07 191.145 156.069 190.772 156.064C190.565 156.065 190.358 156.065 190.145 156.066C189.454 156.067 188.763 156.063 188.072 156.058C187.576 156.058 187.08 156.058 186.584 156.059C185.378 156.059 184.172 156.055 182.966 156.05C181.562 156.044 180.158 156.043 178.755 156.042C176.252 156.04 173.748 156.035 171.245 156.027C168.814 156.019 166.384 156.013 163.953 156.01C163.803 156.01 163.653 156.009 163.498 156.009C162.746 156.008 161.994 156.007 161.241 156.006C155.005 155.997 148.768 155.983 142.531 155.964C142.478 152.295 142.438 148.625 142.414 144.955C142.402 143.25 142.386 141.546 142.36 139.841C142.337 138.353 142.323 136.865 142.318 135.377C142.315 134.591 142.308 133.806 142.291 133.02C142.214 129.237 142.551 126.219 144.528 122.891C144.918 122.226 145.25 121.539 145.588 120.847C146.441 119.291 147.332 118.469 149.164 118.463Z" fill="#9E2B32"/>
<path d="M138.119 53.4592C143.302 55.2472 146.778 54.2325 151.828 52.5359C152.367 52.3557 152.906 52.1758 153.445 51.9966C153.776 51.8863 154.108 51.7754 154.439 51.6637C157.156 50.7579 159.984 50.6969 162.603 51.9973C165.405 53.6415 166.879 55.6444 167.87 58.7252C168.073 59.5154 168.234 60.3107 168.387 61.1123C168.432 61.3372 168.477 61.562 168.523 61.7937C168.668 62.5277 168.81 63.2621 168.953 63.9967C169.054 64.5096 169.155 65.0225 169.256 65.5354C169.521 66.8785 169.783 68.2221 170.045 69.5658C170.313 70.9387 170.584 72.3111 170.854 73.6836C171.246 75.6813 171.639 77.6791 172.028 79.6774C172.07 79.8884 172.111 80.0994 172.154 80.3168C172.191 80.5076 172.228 80.6984 172.266 80.895C172.299 81.0617 172.331 81.2284 172.365 81.4001C172.434 81.7804 172.434 81.7804 172.434 82C153.356 82 134.279 82 114.623 82C119.919 54.9787 119.919 54.9787 123.593 52.4836C128.435 49.6593 133.292 51.7891 138.119 53.4592Z" fill="black"/>
<path d="M118.012 93.6203C118.188 93.6195 118.365 93.6187 118.547 93.6179C118.741 93.6181 118.934 93.6183 119.134 93.6185C119.34 93.6179 119.546 93.6172 119.758 93.6166C120.452 93.6148 121.145 93.6145 121.839 93.6142C122.334 93.6132 122.83 93.6122 123.326 93.6111C124.675 93.6083 126.025 93.607 127.374 93.6061C128.217 93.6055 129.06 93.6046 129.902 93.6037C132.235 93.6012 134.569 93.5991 136.902 93.5984C137.051 93.5983 137.2 93.5983 137.354 93.5982C137.504 93.5982 137.654 93.5981 137.808 93.5981C138.111 93.598 138.415 93.5979 138.718 93.5978C138.868 93.5978 139.019 93.5977 139.174 93.5977C141.611 93.5969 144.049 93.5932 146.487 93.5884C148.989 93.5835 151.492 93.5809 153.995 93.5807C155.4 93.5805 156.805 93.5793 158.21 93.5755C159.532 93.572 160.854 93.5717 162.176 93.5735C162.661 93.5737 163.146 93.5728 163.631 93.5707C164.294 93.5681 164.956 93.5693 165.618 93.5715C165.81 93.5698 166.002 93.5681 166.2 93.5664C167.461 93.576 168.527 93.7165 169.511 94.5865C170.543 95.9827 170.434 96.9933 170.441 98.7069C170.448 99.0902 170.448 99.0902 170.454 99.4812C170.464 101.755 170.042 103.661 169.01 105.681C168.901 105.894 168.901 105.894 168.79 106.111C167.387 108.766 165.046 110.664 162.241 111.71C159.081 112.662 155.638 112.776 152.643 111.245C149.153 109.333 147.007 106.654 145.872 102.822C145.593 101.827 145.627 101.181 145.627 100.066C143.584 100.066 141.541 100.066 139.437 100.066C139.437 100.612 139.437 101.159 139.437 101.722C139.007 104.742 137.253 107.801 134.888 109.671C131.73 112.015 128.446 112.63 124.579 112.28C122.658 111.942 120.978 110.932 119.42 109.796C119.287 109.701 119.154 109.605 119.017 109.507C116.786 107.758 115.101 104.725 114.674 101.929C114.606 100.919 114.598 99.9128 114.597 98.901C114.592 98.6325 114.586 98.364 114.581 98.0874C114.574 95.6589 114.574 95.6589 115.499 94.6827C116.315 93.9438 116.914 93.6222 118.012 93.6203Z" fill="black"/>
<path d="M117.141 69C133.899 69 150.657 69 167.922 69C168.753 72.96 169.584 76.92 170.44 81C152.02 81 133.601 81 114.623 81C115.454 77.04 116.285 73.08 117.141 69Z" fill="#E8E8E8"/>
<path d="M139.437 100.066C141.48 100.066 143.523 100.066 145.627 100.066C145.749 100.809 145.749 100.809 145.872 101.567C146.462 104.856 148.005 107.964 150.786 109.913C152.077 110.805 153.423 111.379 154.913 111.867C155.118 111.936 155.322 112.004 155.532 112.074C159.323 112.422 162.544 111.897 165.644 109.59C165.861 109.436 166.078 109.282 166.302 109.124C168.34 107.124 169.708 104.541 170.184 101.723C170.252 101.723 170.32 101.723 170.39 101.723C170.586 107.295 169.562 112.133 166.882 117.043C166.777 117.287 166.671 117.531 166.563 117.783C166.338 118.173 166.338 118.173 166.057 118.492C165.413 118.64 164.979 118.683 164.334 118.666C164.161 118.667 163.988 118.668 163.809 118.67C163.237 118.672 162.665 118.665 162.092 118.657C161.694 118.658 161.296 118.659 160.897 118.66C159.848 118.664 158.799 118.659 157.75 118.651C156.072 118.641 154.394 118.641 152.716 118.645C152.131 118.644 151.545 118.64 150.96 118.634C150.6 118.634 150.239 118.633 149.879 118.633C149.717 118.63 149.555 118.628 149.388 118.625C148.395 118.628 147.73 118.779 146.866 119.32C146.138 120.08 145.694 120.967 145.237 121.906C145.129 122.124 145.129 122.124 145.019 122.347C144.791 122.808 144.564 123.27 144.338 123.733C144.182 124.047 144.027 124.362 143.872 124.676C143.493 125.444 143.115 126.212 142.738 126.98C142.602 126.98 142.466 126.98 142.326 126.98C142.224 126.772 142.122 126.563 142.017 126.347C141.637 125.57 141.255 124.794 140.872 124.019C140.707 123.683 140.543 123.347 140.379 123.011C140.143 122.527 139.904 122.045 139.666 121.562C139.557 121.338 139.557 121.338 139.446 121.108C138.95 120.112 138.522 119.336 137.454 118.887C136.632 118.666 135.867 118.649 135.023 118.663C134.854 118.664 134.685 118.665 134.51 118.666C134.144 118.668 133.778 118.67 133.413 118.674C132.634 118.681 131.856 118.68 131.077 118.68C129.629 118.68 128.181 118.683 126.733 118.698C125.724 118.709 124.716 118.71 123.707 118.705C123.323 118.705 122.939 118.708 122.555 118.715C119.556 118.765 119.556 118.765 118.713 118.092C118.386 117.611 118.176 117.174 117.976 116.629C117.83 116.349 117.682 116.07 117.53 115.794C117.397 115.517 117.266 115.239 117.137 114.96C117.068 114.809 116.998 114.658 116.926 114.503C115.089 110.426 114.555 106.375 114.674 101.93C115.024 102.614 115.29 103.302 115.551 104.026C116.808 107.329 118.828 109.72 122.064 111.233C125.067 112.536 128.644 112.53 131.7 111.361C132.784 110.877 133.743 110.303 134.691 109.59C134.825 109.492 134.96 109.394 135.099 109.294C137.984 107.032 138.933 103.522 139.437 100.066Z" fill="#FDB656"/>
<path d="M156.819 93.5982C157.949 93.597 159.079 93.592 160.209 93.5862C161.087 93.5823 161.965 93.5813 162.843 93.5809C163.26 93.5803 163.677 93.5787 164.094 93.5759C164.673 93.5724 165.252 93.5728 165.831 93.5741C166.001 93.5722 166.17 93.5703 166.345 93.5684C167.546 93.5771 168.576 93.7607 169.511 94.5869C170.543 95.9831 170.434 96.9937 170.441 98.7073C170.447 99.0906 170.447 99.0906 170.454 99.4816C170.463 101.755 170.042 103.661 169.009 105.682C168.937 105.823 168.864 105.965 168.79 106.112C167.386 108.767 165.046 110.665 162.241 111.711C159.081 112.662 155.637 112.777 152.643 111.246C149.155 109.335 147.015 106.66 145.872 102.835C145.612 101.817 145.575 100.906 145.627 99.8589C144.605 99.8589 143.584 99.8589 142.531 99.8589C142.531 97.8776 142.531 95.8963 142.531 93.855C147.295 93.6335 152.052 93.6023 156.819 93.5982Z" fill="black"/>
<path d="M114.674 87.6445C133.06 87.6445 151.446 87.6445 170.39 87.6445C170.39 90.3773 170.39 93.1102 170.39 95.9258C169.981 95.4134 169.981 95.4134 169.564 94.8906C169.03 94.2334 168.522 94.0724 167.707 93.8555C167.021 93.7959 166.337 93.7978 165.649 93.8001C165.442 93.7992 165.236 93.7982 165.023 93.7973C164.331 93.7946 163.64 93.795 162.948 93.7953C162.453 93.7941 161.957 93.7927 161.461 93.7911C160.254 93.7878 159.047 93.7865 157.84 93.7863C156.859 93.7861 155.877 93.7852 154.896 93.7839C152.113 93.7803 149.33 93.7784 146.547 93.7787C146.397 93.7787 146.247 93.7787 146.093 93.7787C145.943 93.7788 145.793 93.7788 145.638 93.7788C143.204 93.779 140.771 93.775 138.337 93.7692C135.837 93.7632 133.337 93.7604 130.837 93.7607C129.434 93.7608 128.031 93.7597 126.628 93.7553C125.309 93.7511 123.989 93.7512 122.67 93.7542C122.186 93.7547 121.702 93.7537 121.217 93.7512C120.557 93.748 119.896 93.7499 119.235 93.7531C119.043 93.751 118.851 93.7488 118.654 93.7466C117.429 93.7597 116.706 93.9607 115.706 94.6836C115.387 95.0825 115.141 95.4836 114.88 95.9258C114.812 95.9258 114.744 95.9258 114.674 95.9258C114.674 93.193 114.674 90.4602 114.674 87.6445Z" fill="#FDB656"/>
<path d="M144.525 69C152.904 69 161.283 69 169.916 69C170.798 72.9913 171.634 76.9925 172.434 81C163.224 81 154.014 81 144.525 81C144.525 77.04 144.525 73.08 144.525 69Z" fill="#C5C5C5"/>
<path d="M139.437 100.066C140.458 100.066 141.48 100.066 142.532 100.066C142.532 108.88 142.532 117.693 142.532 126.773C141.905 126.144 141.579 125.549 141.204 124.762C141.069 124.485 140.934 124.208 140.799 123.93C140.588 123.495 140.378 123.059 140.168 122.623C139.965 122.201 139.759 121.78 139.554 121.359C139.492 121.229 139.431 121.1 139.367 120.966C138.892 119.996 138.467 119.313 137.454 118.887C136.631 118.666 135.866 118.65 135.023 118.663C134.854 118.664 134.685 118.665 134.51 118.666C134.144 118.668 133.778 118.67 133.413 118.674C132.634 118.681 131.856 118.68 131.077 118.68C129.629 118.68 128.181 118.683 126.733 118.698C125.724 118.709 124.716 118.71 123.707 118.705C123.323 118.705 122.939 118.708 122.555 118.715C119.556 118.765 119.556 118.765 118.713 118.092C118.386 117.611 118.176 117.174 117.976 116.629C117.83 116.349 117.682 116.07 117.53 115.794C117.397 115.517 117.266 115.239 117.137 114.96C117.068 114.809 116.998 114.658 116.926 114.503C115.089 110.426 114.555 106.375 114.674 101.93C115.024 102.614 115.29 103.302 115.551 104.026C116.808 107.329 118.828 109.72 122.064 111.233C125.067 112.536 128.644 112.53 131.7 111.361C132.784 110.877 133.743 110.303 134.691 109.59C134.825 109.492 134.96 109.394 135.099 109.294C137.966 107.046 138.967 103.516 139.437 100.066Z" fill="#FDC377"/>
<path d="M113.627 81.086C122.187 81.0707 130.747 81.059 139.307 81.052C140.318 81.0511 141.328 81.0503 142.338 81.0494C142.539 81.0492 142.74 81.049 142.948 81.0489C146.206 81.046 149.463 81.0407 152.721 81.0346C156.064 81.0284 159.406 81.0247 162.748 81.0233C164.811 81.0224 166.874 81.0195 168.937 81.0141C170.351 81.0106 171.764 81.0095 173.178 81.0104C173.995 81.0108 174.811 81.0101 175.627 81.0066C176.511 81.0027 177.396 81.0041 178.281 81.0059C178.539 81.0039 178.797 81.002 179.063 81C181.252 81.0122 181.252 81.0122 182.271 81.7521C183.267 82.9016 183.411 83.6158 183.398 85.1348C183.292 86.2035 182.796 86.7959 182.044 87.4836C181.124 88.0713 180.215 87.9996 179.173 87.9949C178.983 87.9949 178.794 87.9949 178.598 87.9949C177.955 87.9945 177.312 87.9924 176.669 87.9901C176.205 87.9893 175.742 87.9885 175.278 87.9877C169.177 87.9745 163.077 87.921 156.976 87.8704C155.311 87.8567 153.647 87.8434 151.983 87.8302C148.577 87.8031 145.172 87.7753 141.767 87.7473C141.767 85.6223 141.767 83.4974 141.767 81.308C132.481 81.308 123.194 81.308 113.627 81.308C113.627 81.2348 113.627 81.1615 113.627 81.086Z" fill="#D6D6D6"/>
<path d="M170.464 87.4404C162.027 87.496 153.59 87.548 145.153 87.5953C144.158 87.6009 143.162 87.6065 142.166 87.6121C141.968 87.6133 141.77 87.6144 141.566 87.6155C138.354 87.6338 135.143 87.6544 131.932 87.6758C128.638 87.6978 125.344 87.7173 122.05 87.7343C120.017 87.7449 117.983 87.7575 115.95 87.7727C114.557 87.7829 113.163 87.7906 111.769 87.7963C110.965 87.7997 110.161 87.8042 109.356 87.8117C108.484 87.8197 107.613 87.8225 106.741 87.8248C106.486 87.828 106.231 87.8312 105.969 87.8344C103.812 87.8323 103.812 87.8323 102.804 87.0891C101.817 85.9316 101.672 85.2102 101.677 83.6744C101.777 82.5934 102.263 81.9922 103 81.2933C103.905 80.6949 104.801 80.7631 105.827 80.7629C106.014 80.762 106.201 80.7612 106.394 80.7602C107.028 80.7576 107.662 80.7568 108.296 80.756C108.753 80.7547 109.209 80.7533 109.666 80.7519C115.68 80.7366 121.693 80.7622 127.706 80.7846C129.347 80.7907 130.987 80.7963 132.628 80.8019C135.984 80.8133 139.341 80.8254 142.697 80.8377C142.708 82.9861 142.718 85.1345 142.728 87.348C151.881 87.3044 161.033 87.2608 170.463 87.2159C170.464 87.29 170.464 87.3641 170.464 87.4404Z" fill="#D6D6D6"/>
<path d="M114.623 88C123.833 88 133.043 88 142.532 88C142.532 89.914 142.532 91.828 142.532 93.8C141.769 93.8019 141.006 93.8037 140.22 93.8057C137.7 93.8124 135.18 93.8235 132.66 93.8368C131.133 93.8447 129.605 93.8512 128.077 93.8542C126.745 93.8568 125.413 93.8622 124.081 93.8709C123.376 93.8754 122.671 93.8786 121.966 93.8784C121.178 93.8788 120.39 93.8843 119.602 93.8908C119.253 93.8893 119.253 93.8893 118.898 93.8878C117.568 93.9049 116.732 94.0203 115.657 94.8C115.339 95.186 115.09 95.5732 114.83 96C114.762 96 114.693 96 114.623 96C114.623 93.36 114.623 90.72 114.623 88Z" fill="#FDC378"/>
</g>
<path d="M208.8 27.0315C209.022 27.0211 209.243 27.0107 209.471 27C210.501 27.1751 210.883 27.5123 211.623 28.2292C212.26 29.1473 212.805 30.1078 213.354 31.0759C213.691 31.6573 214.028 32.2384 214.366 32.8193C214.539 33.1178 214.711 33.4163 214.889 33.7239C215.71 35.127 216.562 36.5123 217.415 37.8976C219.029 40.5237 220.632 43.1553 222.22 45.7957C223.142 47.3251 224.076 48.8452 225.036 50.353C225.318 50.8012 225.318 50.8012 225.606 51.2584C225.963 51.8233 226.324 52.3861 226.689 52.9464C227.647 54.4698 228.383 55.8495 228.234 57.6683C227.749 58.6859 227.419 59.18 226.349 59.6521C224.934 59.9795 223.583 59.9698 222.131 59.9664C221.813 59.9679 221.495 59.9693 221.167 59.9707C220.117 59.9746 219.067 59.9743 218.018 59.9737C217.287 59.9748 216.556 59.976 215.825 59.9773C214.293 59.9794 212.762 59.9793 211.231 59.9778C209.464 59.9762 207.698 59.9796 205.931 59.9855C204.227 59.991 202.523 59.9918 200.82 59.9908C200.096 59.991 199.373 59.9924 198.65 59.9952C197.639 59.9987 196.628 59.9968 195.616 59.9936C195.17 59.9967 195.17 59.9967 194.714 60C193.034 59.9882 191.83 59.8358 190.35 59.057C189.647 58.279 189.49 57.8068 189.381 56.7863C189.499 55.4537 189.968 54.6509 190.677 53.5198C190.807 53.3057 190.937 53.0916 191.07 52.871C191.506 52.1533 191.948 51.4393 192.39 50.7251C192.706 50.2071 193.022 49.6889 193.338 49.1705C194.02 48.0522 194.704 46.9353 195.39 45.8193C196.48 44.045 197.56 42.2651 198.637 40.4839C198.816 40.1877 198.996 39.8915 199.181 39.5863C200.033 38.1775 200.884 36.7676 201.729 35.3543C202.024 34.8597 202.321 34.3655 202.617 33.8715C202.988 33.2528 203.358 32.6335 203.726 32.0133C206.681 27.096 206.681 27.096 208.8 27.0315Z" fill="#DB3739"/>
<path d="M208.827 27.0087C209.043 27.0058 209.259 27.003 209.482 27C210.683 27.2626 211.345 27.8701 212.02 28.8418C212.478 29.5889 212.914 30.3451 213.346 31.1068C213.683 31.6885 214.021 32.2698 214.359 32.8509C214.532 33.1496 214.704 33.4483 214.883 33.756C215.704 35.1596 216.556 36.5455 217.41 37.9313C219.024 40.5585 220.629 43.1912 222.217 45.8327C223.139 47.3627 224.074 48.8835 225.034 50.3919C225.317 50.8402 225.317 50.8402 225.605 51.2976C225.962 51.8627 226.323 52.4258 226.688 52.9863C227.647 54.5103 228.383 55.8906 228.234 57.7102C227.749 58.7271 227.419 59.2217 226.35 59.6956C224.922 60.0241 223.56 60.0057 222.096 59.996C221.774 59.9961 221.452 59.9961 221.121 59.9962C220.061 59.9958 219.001 59.9915 217.941 59.9871C217.204 59.9861 216.468 59.9853 215.732 59.9848C213.994 59.9829 212.256 59.9785 210.518 59.9729C208.539 59.9667 206.56 59.9636 204.581 59.9608C200.511 59.955 196.441 59.9453 192.371 59.9329C192.371 59.8412 192.371 59.7495 192.371 59.655C192.903 59.6526 192.903 59.6526 193.446 59.6501C196.788 59.6342 200.13 59.614 203.472 59.5896C205.191 59.5771 206.909 59.5662 208.627 59.5588C210.285 59.5516 211.943 59.5403 213.601 59.5263C214.234 59.5217 214.866 59.5185 215.499 59.5168C216.385 59.5141 217.271 59.5063 218.157 59.4973C218.419 59.4977 218.681 59.4981 218.95 59.4985C220.34 59.4786 221.274 59.4035 222.403 58.5437C223.087 57.6429 223.063 56.8542 222.986 55.7653C222.666 55.0083 222.666 55.0083 222.183 54.2762C222.008 53.9929 221.834 53.7096 221.654 53.4177C221.462 53.1151 221.27 52.8124 221.073 52.5006C220.873 52.1792 220.674 51.8576 220.475 51.5358C220.061 50.8676 219.646 50.2004 219.23 49.5339C218.278 48.0083 217.354 46.4682 216.426 44.9295C216.063 44.3292 215.699 43.729 215.336 43.1289C215.156 42.8311 214.975 42.5334 214.79 42.2266C214.232 41.3052 213.673 40.3839 213.115 39.4627C210.855 35.7337 208.604 32.0001 206.367 28.259C207.16 27.3954 207.603 26.9925 208.827 27.0087Z" fill="#9E2B32"/>
<path d="M207.588 35C208.596 35.147 208.793 35.1963 209.38 35.9775C209.488 36.5373 209.488 36.5373 209.493 37.183C209.496 37.4254 209.5 37.6678 209.503 37.9175C209.503 38.1785 209.502 38.4394 209.501 38.7083C209.502 38.9773 209.504 39.2462 209.505 39.5233C209.507 40.0921 209.507 40.661 209.504 41.2298C209.502 42.1004 209.51 42.9704 209.519 43.8409C209.519 44.3935 209.519 44.9461 209.518 45.4987C209.523 45.8893 209.523 45.8893 209.528 46.2879C209.509 48.0862 209.509 48.0862 208.867 48.9884C208.036 49.5358 207.57 49.567 206.596 49.3838C205.722 48.5873 205.413 47.9557 205.339 46.7997C205.331 46.3316 205.331 45.8633 205.335 45.3951C205.334 45.1462 205.333 44.8973 205.332 44.6409C205.331 44.116 205.333 43.5911 205.338 43.0662C205.344 42.2643 205.338 41.4631 205.331 40.6612C205.331 40.1503 205.333 39.6393 205.335 39.1284C205.333 38.8895 205.33 38.6506 205.328 38.4044C205.346 37.2798 205.403 36.6708 205.987 35.6846C206.596 35.1396 206.596 35.1396 207.588 35Z" fill="#F3EEF9"/>
<path d="M207.933 51.0727C208.576 51.5091 208.576 51.5091 209.046 52.1899C209.204 53.2973 209.206 53.8876 208.611 54.8432C207.933 55.2621 207.933 55.2621 206.923 55.2272C205.984 54.9828 205.984 54.9828 205.427 54.4242C205.289 53.5756 205.301 52.7605 205.427 51.9106C206.138 51.0389 206.839 50.8808 207.933 51.0727Z" fill="#F3ECF8"/>
<defs>
<clipPath id="clip0_2027_5004">
<rect width="105.654" height="106" fill="white" transform="translate(89.7051 51)"/>
</clipPath>
</defs>
</svg>
